<?xml version="1.0" standalone="no"?>
<!DOCTYPE svg PUBLIC "-//W3C//DTD SVG 20010904//EN"
 "http://www.w3.org/TR/2001/REC-SVG-20010904/DTD/svg10.dtd">
<svg version="1.0" xmlns="http://www.w3.org/2000/svg"
 width="1102.000000pt" height="1102.000000pt" viewBox="0 0 1102.000000 1102.000000"
 preserveAspectRatio="xMidYMid meet">
<metadata>
Created by potrace 1.11, written by Peter Selinger 2001-2013
</metadata>
<g transform="translate(0.000000,1102.000000) scale(0.100000,-0.100000)"
fill="#000000" stroke="none">
<path d="M6162 8809 c-64 -11 -192 -61 -242 -93 -33 -21 -41 -22 -123 -14 -76
7 -94 6 -130 -10 -23 -10 -64 -24 -90 -32 -41 -11 -50 -11 -57 0 -13 22 -76
17 -109 -8 -24 -17 -44 -22 -98 -22 -173 -1 -351 -88 -384 -188 -10 -31 -8
-40 20 -94 17 -34 31 -65 31 -69 0 -5 -15 -9 -32 -9 -18 0 -49 -10 -68 -22
-19 -12 -54 -22 -77 -23 -53 -2 -87 -25 -124 -83 -32 -51 -37 -88 -14 -118 8
-10 15 -36 15 -57 0 -45 31 -109 62 -131 30 -21 48 -20 23 2 -51 43 -75 88
-75 140 0 33 -6 56 -16 66 -14 15 -14 19 3 54 10 20 24 36 31 34 8 -1 11 2 7
8 -8 13 12 50 27 50 9 0 9 -3 0 -12 -19 -19 -14 -33 6 -15 14 12 19 13 29 2 6
-7 9 -16 6 -19 -4 -3 -1 -6 5 -6 15 0 43 41 36 52 -3 5 -20 6 -37 3 -24 -5
-28 -4 -17 4 8 6 27 11 42 11 14 0 48 11 75 24 61 31 113 41 113 22 0 -9 -8
-12 -26 -8 -24 4 -141 -45 -130 -55 2 -3 17 2 34 11 28 15 31 14 62 -14 19
-17 37 -30 42 -30 13 0 9 17 -9 35 -14 14 -14 18 -2 26 24 15 29 11 48 -33 21
-50 37 -122 21 -98 -6 9 -10 10 -10 3 0 -7 6 -16 13 -20 7 -4 20 -20 29 -35
10 -14 29 -38 42 -53 14 -15 23 -32 20 -37 -6 -9 -20 -63 -45 -165 -6 -24 -15
-43 -20 -43 -11 0 -11 -2 0 38 7 24 7 32 -3 32 -17 0 -38 -24 -34 -40 2 -7 -3
-15 -10 -17 -7 -3 -11 -1 -10 4 2 4 -1 9 -5 10 -4 1 -15 10 -24 19 -16 15 -17
15 -24 -2 -5 -14 0 -23 20 -33 31 -17 76 -51 67 -51 -4 0 -18 8 -33 17 -30 20
-132 63 -149 63 -6 0 -26 8 -45 17 -43 21 -121 18 -174 -7 -45 -22 -85 -74
-85 -111 0 -33 105 -140 166 -170 40 -19 52 -20 97 -12 l52 10 -58 2 c-67 1
-102 17 -174 78 -54 46 -65 63 -38 63 8 0 14 -3 13 -7 -2 -5 2 -8 7 -8 6 0 10
22 10 49 0 31 5 51 13 53 6 3 12 -2 12 -11 0 -9 7 -16 16 -16 10 0 14 7 12 23
-2 16 2 22 14 21 11 -1 15 3 11 10 -4 6 1 5 10 -3 9 -7 18 -11 18 -7 1 3 2 10
3 15 0 5 5 13 10 18 5 5 6 3 2 -4 -4 -8 -1 -13 9 -13 10 0 13 5 9 12 -5 8 -2
9 12 3 10 -4 44 -16 74 -27 95 -34 124 -50 170 -92 25 -23 56 -49 70 -59 22
-15 21 -15 -11 1 -20 10 -52 33 -70 52 -34 34 -116 77 -173 90 -17 4 -39 11
-49 15 -10 4 -17 4 -16 -1 3 -20 -2 -28 -10 -15 -8 12 -12 12 -25 -2 -15 -15
-15 -17 2 -26 14 -8 18 -18 14 -38 -2 -15 -2 -25 2 -22 4 4 8 21 8 38 1 17 5
31 10 31 4 0 8 -3 9 -7 0 -5 2 -17 5 -28 2 -11 5 -30 6 -42 3 -30 12 -29 27 3
13 28 25 25 26 -6 0 -28 19 -30 23 -2 2 12 -1 22 -7 22 -17 0 -13 37 5 44 8 3
12 2 9 -4 -3 -6 -1 -10 5 -10 7 0 9 -8 5 -20 -4 -12 -1 -28 6 -36 11 -14 15
-13 30 8 11 14 17 17 17 8 -1 -8 0 -28 0 -43 l2 -28 22 21 c29 26 36 25 30 -5
-3 -17 1 -27 13 -31 12 -5 13 -9 4 -14 -13 -8 -40 10 -33 22 2 4 0 9 -6 13 -9
6 -14 -8 -11 -28 1 -5 -3 -6 -8 -3 -5 4 -11 -4 -13 -16 -2 -18 -11 -24 -38
-27 -32 -4 -33 -4 -10 -10 32 -9 66 -69 85 -152 91 -390 114 -461 189 -589 24
-41 63 -96 86 -122 33 -38 38 -48 23 -48 -10 0 -29 7 -43 15 -14 8 -35 19 -46
24 -12 5 -37 29 -55 52 -74 94 -128 138 -196 159 -75 23 -157 27 -151 8 3 -7
20 -15 39 -18 84 -14 160 -77 276 -231 50 -65 104 -111 162 -136 22 -10 41
-21 41 -25 0 -20 -82 -4 -174 33 -102 41 -196 61 -196 42 0 -6 13 -13 29 -16
40 -8 136 -67 201 -123 66 -57 97 -71 175 -79 46 -5 79 -1 140 15 140 38 125
45 125 -56 0 -49 -5 -132 -10 -184 -6 -52 -17 -166 -25 -254 -13 -148 -15
-160 -40 -186 -15 -15 -34 -27 -42 -26 -9 0 -34 -23 -56 -54 -21 -30 -42 -54
-47 -53 -13 4 -26 -18 -44 -74 -9 -28 -23 -54 -31 -57 -7 -2 -15 -22 -17 -43
l-3 -38 -18 40 c-10 22 -37 92 -59 155 -42 117 -49 171 -33 252 6 33 10 37 48
42 23 3 56 6 73 6 18 0 47 12 72 30 23 16 47 29 54 28 15 -4 26 36 27 104 2
125 -75 240 -210 313 -41 22 -104 68 -141 102 -46 42 -87 68 -126 83 -31 11
-79 36 -107 55 -27 18 -88 48 -135 66 -57 22 -107 50 -153 88 -50 40 -71 51
-77 42 -5 -9 -9 -10 -14 -2 -7 11 -79 51 -91 51 -4 0 -3 -9 0 -20 7 -23 -2
-26 -24 -7 -9 8 -36 22 -61 32 -25 9 -51 19 -57 22 -7 3 -13 -2 -13 -10 0 -12
-6 -12 -37 3 -21 10 -53 21 -72 25 -28 6 -33 5 -28 -8 5 -13 -1 -13 -46 -1
-70 19 -91 18 -83 -2 5 -12 2 -15 -11 -9 -10 4 -45 9 -77 12 -43 5 -57 3 -52
-5 5 -9 -10 -12 -51 -12 -63 0 -98 -14 -74 -29 9 -6 -2 -11 -35 -16 -51 -7
-79 -19 -101 -41 -7 -7 -30 -15 -52 -19 -41 -7 -79 -35 -47 -35 27 0 18 -14
-22 -32 -20 -10 -66 -33 -102 -52 -35 -19 -86 -38 -113 -41 -29 -4 -47 -11
-44 -19 6 -18 166 -19 258 -1 101 19 110 19 103 0 -5 -12 4 -15 45 -15 28 0
51 -4 51 -10 0 -5 27 -12 59 -16 34 -3 62 -12 65 -19 2 -7 32 -16 67 -20 35
-4 56 -11 49 -15 -19 -12 3 -21 65 -27 30 -3 55 -9 55 -14 0 -4 25 -11 55 -14
33 -5 59 -13 64 -22 6 -11 31 -17 82 -21 44 -3 77 -10 81 -17 5 -7 30 -16 57
-20 28 -4 52 -13 55 -21 3 -8 16 -14 28 -14 13 0 30 -4 38 -10 12 -8 12 -10
-3 -16 -30 -11 -19 -23 38 -39 30 -9 53 -21 50 -26 -7 -11 36 -29 70 -29 16 0
22 -5 21 -17 -1 -14 9 -19 49 -23 28 -3 64 -13 80 -22 17 -8 44 -19 60 -23 17
-4 24 -10 18 -12 -20 -7 -15 -23 7 -23 15 0 30 -20 59 -77 22 -43 62 -107 90
-143 42 -54 62 -97 127 -270 65 -173 116 -307 142 -369 3 -8 -39 30 -94 85
-54 55 -127 118 -162 141 -74 49 -205 102 -273 110 -56 7 -69 -11 -16 -22 45
-9 153 -79 149 -97 -1 -8 10 -20 24 -27 36 -16 94 -61 91 -71 -1 -4 16 -25 38
-45 25 -22 32 -34 20 -30 -63 22 -76 24 -81 11 -3 -8 -16 -11 -35 -8 -19 3
-34 0 -39 -8 -4 -7 -38 -15 -79 -18 -39 -2 -71 -8 -71 -12 0 -4 21 -27 47 -51
27 -24 47 -50 45 -57 -3 -13 45 -62 61 -62 4 0 7 -9 7 -19 0 -20 38 -56 71
-66 14 -5 18 -12 13 -29 -5 -20 -1 -24 29 -30 19 -4 38 -13 41 -22 3 -8 27
-24 53 -36 27 -12 53 -28 59 -36 13 -17 66 -9 89 15 13 13 15 13 15 -1 0 -19
3 -19 52 -6 20 6 48 25 63 42 14 17 27 29 28 27 19 -27 77 -163 82 -190 4 -20
20 -51 36 -68 25 -28 29 -40 28 -89 0 -31 -6 -73 -12 -92 -12 -33 -11 -37 18
-65 34 -33 45 -84 64 -290 5 -60 30 -220 54 -355 62 -334 67 -429 31 -523 -4
-11 -1 -17 9 -17 8 0 18 -7 21 -16 12 -32 6 -434 -8 -527 -8 -50 -18 -139 -21
-197 -4 -64 -13 -114 -21 -128 -18 -27 -16 -28 82 -37 52 -4 73 -2 81 7 6 7
15 95 22 194 6 100 20 222 31 270 30 144 39 240 34 397 -3 118 -1 153 10 169
13 19 12 24 -8 52 -33 44 -64 146 -75 251 -23 204 -31 315 -31 403 0 87 2 95
26 117 l25 23 -28 14 c-16 7 -39 35 -55 63 -42 78 -63 230 -34 254 8 7 17 22
20 35 7 30 98 112 144 132 19 8 35 14 36 14 1 0 3 -21 5 -47 3 -58 7 -66 32
-53 22 12 20 17 45 -80 9 -36 21 -74 27 -84 9 -19 10 -19 23 -1 13 18 17 16
60 -30 30 -33 47 -46 51 -37 4 10 9 8 20 -8 12 -17 18 -19 29 -9 12 10 20 6
45 -24 17 -21 36 -37 43 -37 7 0 32 -23 55 -50 46 -55 58 -60 63 -30 2 16 11
10 45 -35 27 -34 50 -55 63 -55 17 0 20 7 20 52 0 62 29 161 45 154 14 -5 95
151 95 182 0 11 4 24 10 27 5 3 7 0 4 -9 -3 -8 -2 -21 2 -27 11 -18 21 13 30
96 4 39 9 64 11 58 3 -7 9 -13 15 -13 6 0 8 33 6 85 -2 53 0 81 6 75 34 -34
29 16 -10 115 -14 36 -18 52 -8 40 11 -15 17 -17 23 -7 6 10 16 3 40 -25 18
-21 34 -33 37 -27 3 6 22 -6 43 -28 43 -42 66 -50 58 -18 -7 29 4 25 43 -15
38 -39 65 -46 57 -15 -4 16 3 13 36 -15 44 -38 81 -47 70 -17 -5 13 1 11 28
-9 59 -44 62 -45 57 -17 -5 26 -5 26 44 -9 49 -36 52 -35 51 14 0 9 4 9 18 0
17 -10 17 -12 3 -17 -13 -5 -9 -13 20 -38 39 -34 62 -42 52 -17 -3 8 -8 21
-11 28 -4 9 3 13 19 13 14 0 22 -4 20 -8 -3 -5 -11 -5 -17 -1 -7 3 -3 -3 7
-16 30 -33 77 -59 158 -87 139 -48 147 -45 59 27 -33 27 -67 67 -87 104 -39
70 -41 80 -14 65 32 -17 25 7 -17 59 -21 25 -37 51 -35 57 1 7 -24 36 -55 64
-32 29 -50 50 -41 47 10 -3 20 -2 23 3 5 9 -108 90 -125 90 -4 0 -10 8 -13 19
-2 10 -30 31 -65 47 -34 16 -59 34 -57 41 3 10 -80 53 -104 53 -6 0 -10 5 -8
12 1 7 -23 17 -58 25 -33 8 -62 18 -65 24 -9 13 -68 29 -107 29 -26 0 -31 3
-26 17 6 14 -1 15 -62 9 -61 -6 -67 -5 -55 9 12 14 7 20 -14 16 -5 -1 -6 8 -2
21 27 95 37 142 32 155 -6 14 -9 14 -26 -2 -20 -18 -20 -17 -20 36 0 69 -9
102 -25 95 -8 -3 -16 6 -19 20 -23 89 -66 167 -66 118 0 -9 -22 17 -48 57 -50
76 -78 106 -88 96 -4 -3 -17 7 -31 24 -28 33 -43 37 -43 12 -1 -23 -58 42 -66
75 -8 30 -20 28 -97 -13 -44 -24 -67 -31 -69 -23 -7 19 -84 -19 -114 -55 -20
-23 -22 -32 -12 -38 9 -6 9 -9 1 -9 -7 0 -16 7 -21 16 -13 23 -26 12 -59 -46
-15 -27 -35 -51 -44 -53 -10 -3 -23 -23 -30 -48 -12 -42 -39 -94 -39 -74 0 6
4 27 9 47 l9 37 -56 -31 -55 -32 6 82 c11 139 36 252 86 382 27 69 53 139 58
155 5 17 18 32 27 33 10 2 52 -11 94 -30 69 -29 87 -33 167 -33 128 0 156 17
341 195 174 170 202 190 361 268 107 52 114 57 84 60 -39 4 -155 -30 -226 -65
-67 -34 -191 -122 -295 -209 -128 -107 -169 -131 -219 -126 l-42 4 76 33 c118
52 178 104 295 256 81 105 135 155 198 181 28 12 52 25 52 30 0 18 -85 -3
-146 -37 -75 -42 -122 -86 -177 -165 l-38 -55 40 44 c22 25 44 42 47 38 4 -4
3 -7 -2 -7 -14 0 -55 -75 -47 -84 4 -3 -15 -29 -42 -56 -37 -37 -54 -49 -70
-44 -15 4 -16 3 -6 -4 11 -8 5 -15 -25 -34 -21 -14 -48 -27 -59 -31 -11 -3
-50 -16 -87 -30 -38 -13 -68 -22 -68 -18 0 10 61 41 71 36 14 -9 49 14 126 83
39 35 73 62 76 60 10 -7 45 35 40 48 -3 8 -10 11 -15 8 -7 -4 -6 -9 1 -14 9
-5 7 -11 -4 -20 -33 -28 -7 34 53 125 33 50 69 115 80 146 26 71 58 207 67
284 13 115 48 246 91 345 21 46 33 60 76 84 117 66 182 154 183 247 0 42 -5
62 -19 78 -18 20 -18 22 -3 39 24 27 21 57 -8 76 -14 9 -39 32 -57 52 -38 41
-96 74 -130 73 -17 0 -10 -6 27 -24 57 -27 56 -32 -3 -11 -27 10 -44 11 -48 5
-7 -13 14 -39 32 -39 8 0 13 -5 11 -12 -1 -6 7 -16 18 -22 11 -7 21 -18 23
-26 7 -29 23 -41 39 -29 7 7 16 9 20 5 3 -3 1 -6 -5 -6 -7 0 -12 -7 -12 -15 0
-55 -118 -184 -207 -229 -29 -14 -56 -26 -61 -26 -4 0 -9 19 -10 43 -1 23 -4
67 -8 97 l-5 55 54 57 c30 31 66 80 81 110 24 50 26 59 16 103 -17 77 -30 88
-24 20 5 -44 2 -71 -10 -100 -25 -58 -47 -90 -55 -77 -4 7 -12 3 -20 -11 -13
-20 -13 -21 2 -8 10 7 17 9 17 3 0 -10 -70 -42 -91 -42 -6 0 -38 -24 -70 -54
-72 -67 -131 -87 -251 -84 l-83 2 95 7 c105 7 152 17 145 29 -3 5 5 6 17 3 19
-4 20 -3 8 6 -8 6 -22 11 -32 11 -9 0 -19 6 -21 13 -3 6 -6 0 -6 -15 -1 -23
-5 -26 -35 -25 -19 0 -32 5 -29 10 3 5 -7 20 -23 32 l-29 23 60 17 c86 25 134
56 228 148 56 55 95 105 121 152 34 63 41 66 21 10 l-7 -20 13 20 c7 11 14 34
16 50 16 161 16 162 -9 217 -36 77 -108 153 -166 174 -26 9 -65 25 -87 35 -49
22 -206 32 -283 18z m178 -9 c17 -5 3 -7 -45 -7 -38 0 -85 -3 -103 -7 -31 -7
-32 -9 -15 -21 15 -12 21 -12 39 0 13 8 26 10 35 5 8 -5 38 -9 68 -9 32 1 57
-4 61 -11 6 -9 11 -7 19 9 10 18 9 21 -11 22 -23 2 -23 2 -1 6 12 2 41 -5 65
-15 24 -11 65 -29 93 -41 51 -23 85 -48 85 -63 0 -5 -17 4 -37 21 -50 39 -144
76 -153 60 -5 -7 -10 -8 -14 -1 -3 6 0 13 6 15 8 4 7 6 -3 6 -9 1 -19 -5 -22
-13 -4 -11 10 -19 51 -31 31 -10 71 -24 89 -31 17 -8 36 -14 41 -14 6 0 17 -9
25 -21 11 -14 16 -17 19 -7 3 7 17 -6 33 -32 23 -35 30 -60 33 -112 4 -64 2
-73 -39 -155 -32 -64 -65 -109 -118 -166 -104 -109 -140 -132 -270 -172 -60
-18 -75 -16 -33 6 26 13 77 59 65 59 -3 0 -18 -11 -35 -25 -49 -42 -51 -28 -2
17 25 23 54 58 65 77 l20 36 -7 -35 c-3 -19 -4 -33 -1 -30 3 3 6 9 6 13 0 4 7
15 16 23 17 18 20 34 5 34 -5 0 -10 4 -10 10 0 6 9 6 24 0 15 -5 27 -5 34 2
14 14 4 38 -15 38 -11 0 -11 5 5 28 20 29 19 52 -3 52 -7 0 -16 -14 -20 -30
-4 -17 -22 -50 -40 -75 -19 -24 -41 -57 -49 -73 -26 -50 -81 -87 -155 -105
-79 -19 -81 -20 -81 -9 0 4 15 8 33 9 70 5 187 65 187 95 0 6 -10 2 -22 -10
-25 -23 -70 -42 -96 -42 -9 1 0 7 21 15 22 7 60 31 85 52 42 35 58 61 113 175
14 28 20 116 8 123 -16 11 -79 14 -79 4 0 -5 4 -9 10 -9 6 0 9 -3 8 -7 0 -5 2
-16 7 -26 6 -14 10 -15 22 -5 12 10 14 7 11 -17 -1 -16 -9 -31 -17 -33 -8 -3
-11 0 -7 6 9 14 -15 52 -32 52 -7 0 -15 -6 -18 -14 -9 -24 -33 -27 -55 -5 -19
19 -22 20 -46 4 -15 -10 -22 -12 -18 -4 6 9 3 11 -8 6 -10 -3 -17 -2 -17 3 0
6 8 10 18 10 9 0 32 13 49 29 27 23 30 31 19 40 -14 12 -46 5 -46 -9 0 -4 -7
-10 -14 -13 -10 -4 -13 -1 -9 9 10 27 -50 16 -81 -16 l-28 -29 20 -21 c20 -21
20 -22 31 -2 7 13 7 22 0 29 -7 7 -3 11 14 11 19 0 24 -4 19 -17 -3 -9 -13
-21 -21 -27 -13 -10 -13 -14 -1 -29 8 -9 26 -21 40 -27 l25 -10 -33 -14 c-18
-7 -31 -18 -28 -23 7 -10 -40 -51 -58 -51 -6 0 -3 5 6 11 16 9 16 11 0 29 -31
37 -60 21 -38 -22 13 -24 12 -27 -11 -37 -35 -16 -38 -14 -12 8 l23 18 -23 13
c-19 10 -25 10 -32 -1 -5 -8 -7 -22 -5 -31 7 -28 -15 -21 -45 15 -21 24 -30
29 -39 21 -7 -7 -10 -20 -8 -30 4 -21 28 -26 40 -9 4 5 8 0 8 -12 0 -12 -9
-27 -20 -33 -14 -7 -20 -7 -20 0 0 5 6 10 12 10 7 0 -3 8 -22 19 -38 20 -51
13 -42 -23 5 -19 4 -19 -11 -7 -14 11 -20 11 -32 1 -20 -16 -19 -23 5 -37 17
-11 23 -9 43 13 17 18 27 22 32 15 8 -14 -12 -41 -31 -41 -8 0 -14 -7 -14 -15
0 -8 -9 -15 -21 -15 -11 0 -18 4 -15 8 7 12 -61 82 -79 82 -8 0 -15 -7 -15
-16 0 -21 27 -47 35 -34 12 19 22 10 17 -16 -4 -20 0 -26 17 -31 31 -8 20 -27
-22 -37 -29 -8 -40 -6 -55 7 -10 9 -23 17 -29 17 -6 0 -13 9 -16 21 -4 15 -12
20 -28 17 -32 -4 -35 -26 -5 -40 31 -14 29 -30 -5 -38 -33 -8 -31 -34 4 -38
17 -2 27 1 27 10 0 8 13 13 31 14 17 1 25 -2 19 -6 -9 -6 -9 -9 -1 -14 6 -4 8
-12 5 -18 -4 -6 -10 -5 -15 3 -6 11 -13 11 -26 3 -29 -18 -21 -39 15 -42 l33
-3 -22 -20 c-12 -10 -26 -19 -31 -19 -4 0 -8 -6 -8 -14 0 -25 -92 -46 -134
-30 -9 3 -16 12 -16 19 0 14 -37 31 -47 21 -3 -3 -2 -17 1 -32 6 -22 11 -25
33 -19 23 5 25 4 14 -9 -17 -20 -40 -21 -47 -2 -3 8 -16 17 -30 20 -13 4 -24
11 -24 16 0 6 -11 10 -25 10 -30 0 -34 -25 -7 -39 13 -7 22 -7 29 0 8 8 11 4
10 -12 -3 -33 -54 -37 -59 -5 -4 29 -30 26 -45 -4 -7 -14 -17 -25 -22 -25 -5
0 -13 -3 -17 -7 -4 -5 1 -8 12 -8 10 0 -19 -21 -65 -45 -45 -25 -86 -45 -89
-45 -9 0 65 50 75 50 4 0 17 8 28 17 14 11 15 14 4 10 -9 -3 -25 0 -35 7 -31
21 -54 16 -55 -13 -1 -14 -1 -30 1 -36 1 -5 -4 -4 -11 3 -11 10 -11 21 0 60 8
26 19 67 26 92 8 28 14 39 18 30 5 -11 8 -12 13 -2 8 18 25 15 22 -4 -5 -27
27 -41 47 -20 10 9 16 18 14 19 -2 2 -21 15 -41 30 -20 15 -44 27 -52 27 -10
0 -16 9 -16 23 0 15 -9 28 -23 34 -38 18 -89 143 -57 143 6 0 10 10 10 21 0
16 -5 20 -20 16 -14 -3 -20 0 -20 10 0 9 -17 41 -37 72 -70 105 -75 118 -58
149 44 81 110 123 246 158 55 14 103 23 106 20 3 -3 -12 -8 -34 -12 -52 -8
-65 -17 -57 -37 3 -9 9 -15 13 -12 12 7 5 -55 -7 -67 -15 -15 -16 -50 -2 -64
5 -5 13 -43 16 -84 l6 -75 -32 -12 c-23 -9 -31 -17 -26 -28 4 -13 1 -15 -13
-10 -21 6 -42 -20 -34 -42 3 -8 -5 -13 -21 -13 -21 0 -26 -5 -26 -25 0 -32 27
-33 39 -1 5 13 19 26 31 29 19 5 21 2 16 -18 -5 -18 -1 -25 14 -30 11 -3 20
-11 20 -17 0 -5 13 -27 29 -47 32 -41 48 -81 32 -81 -19 0 -12 -28 11 -44 12
-9 18 -16 13 -16 -18 0 19 -20 38 -20 12 0 17 8 17 25 0 17 -5 25 -18 25 -19
0 -58 57 -47 68 3 4 11 -1 16 -11 6 -9 19 -17 29 -17 11 0 20 -6 20 -14 0 -20
14 -28 35 -20 22 9 16 49 -8 48 -9 -1 -17 2 -17 7 0 13 34 11 48 -3 10 -9 15
-9 27 3 13 13 13 18 2 33 -12 17 -15 17 -30 2 -11 -11 -29 -16 -57 -14 -22 2
-40 5 -40 8 0 11 20 34 20 25 1 -5 8 4 17 20 10 18 18 25 21 17 2 -7 -2 -19
-9 -28 -17 -20 0 -34 28 -23 21 8 23 32 4 49 -3 3 -11 14 -17 25 -7 11 -19 19
-28 17 -9 -2 -16 4 -16 12 0 9 6 13 14 10 15 -6 24 27 24 86 0 14 3 37 7 53 6
21 4 27 -9 27 -9 0 -16 7 -16 15 0 9 -11 21 -25 27 -27 12 -34 52 -16 87 7 13
5 20 -11 30 -11 7 -17 8 -14 3 3 -6 3 -18 -1 -28 -6 -16 -7 -15 -21 2 -14 18
-14 18 -8 -1 10 -28 28 -126 28 -152 0 -13 5 -20 10 -17 5 3 7 12 4 19 -3 8 4
13 19 13 20 0 25 -7 30 -39 4 -20 2 -46 -3 -56 -5 -10 -7 -25 -4 -33 5 -13 3
-13 -11 -1 -11 9 -17 10 -17 2 0 -6 -4 -11 -10 -11 -5 0 -10 6 -10 14 0 7 -7
27 -15 42 -9 18 -15 56 -15 97 0 41 -6 80 -15 97 -14 27 -13 31 12 69 15 23
46 52 69 66 23 14 50 32 58 41 15 14 16 14 17 -3 0 -10 3 -13 6 -5 2 6 10 12
18 12 7 0 18 7 25 15 8 9 8 15 2 15 -6 0 -12 -5 -14 -11 -2 -7 -11 -10 -18 -7
-10 4 -2 11 22 22 46 20 50 20 74 0 21 -17 20 -17 -36 3 -9 3 -7 -1 5 -11 11
-10 15 -15 9 -12 -16 8 -25 -19 -15 -46 8 -22 8 -22 26 5 21 32 50 35 65 6 9
-16 14 -18 26 -8 8 6 14 20 14 31 0 18 -5 20 -32 14 -51 -10 -25 4 63 35 77
27 86 28 168 19 l86 -9 -86 3 c-48 2 -93 -1 -100 -6 -10 -7 -8 -8 8 -5 19 4
21 2 13 -17 -7 -19 -5 -22 17 -21 13 0 29 8 35 19 8 15 12 16 19 5 6 -10 9
-11 9 -1 0 19 17 14 23 -8 3 -11 12 -20 21 -20 9 0 16 8 16 20 0 21 19 28 21
8 0 -10 2 -10 6 0 7 18 20 15 26 -8 3 -11 13 -20 22 -20 9 0 19 9 22 20 3 11
9 20 14 20 13 0 88 -54 89 -63 0 -5 -5 -5 -12 -1 -7 4 -8 3 -4 -4 4 -6 14 -8
23 -5 11 4 14 3 9 -5 -4 -7 -2 -10 6 -7 8 3 28 -13 48 -40 18 -25 39 -45 46
-45 17 0 27 17 14 25 -6 4 -7 11 -4 17 5 7 2 8 -5 3 -8 -5 -24 6 -43 29 -17
21 -53 53 -82 72 -52 35 -54 46 -2 19 35 -18 80 -24 83 -10 2 6 -6 10 -17 10
-10 0 -22 4 -25 7 -4 4 -14 4 -23 1 -14 -5 -14 -3 1 8 11 9 16 21 11 32 -9 24
-26 21 -22 -5 2 -11 -3 -23 -9 -25 -7 -3 -13 0 -13 7 0 6 -5 8 -11 4 -7 -4
-19 3 -28 15 -15 20 -20 21 -45 10 l-27 -13 28 -12 c25 -11 26 -12 6 -13 -12
-1 -24 3 -28 9 -3 5 -12 7 -20 3 -27 -10 -16 5 18 24 121 70 329 118 407 93z
m-990 -184 c0 -2 -7 -7 -16 -10 -8 -3 -12 -2 -9 4 6 10 25 14 25 6z m-61 -38
c-2 -2 -17 -14 -33 -28 -27 -23 -28 -23 -17 -3 10 20 25 30 45 32 5 1 7 0 5
-1z m911 -218 c8 -5 11 -10 5 -10 -5 0 -17 5 -25 10 -8 5 -10 10 -5 10 6 0 17
-5 25 -10z m35 -19 c-3 -6 -11 -11 -17 -11 -6 0 -6 6 2 15 14 17 26 13 15 -4z
m101 -18 c15 -59 -82 -178 -169 -207 -59 -20 -78 -20 -52 -1 18 14 18 17 3 31
-20 20 -42 9 -35 -17 4 -14 0 -19 -14 -19 -11 0 -31 -8 -45 -17 -26 -17 -164
-26 -164 -10 0 4 5 7 10 7 6 0 15 12 21 26 5 15 12 24 15 22 2 -3 19 8 35 23
17 16 41 29 54 29 32 0 93 27 145 65 25 18 68 43 97 55 28 12 54 28 57 36 8
20 35 6 42 -23z m-166 -17 c0 -2 -7 -7 -16 -10 -8 -3 -12 -2 -9 4 6 10 25 14
25 6z m-926 -92 c4 -14 25 -43 47 -65 24 -24 34 -39 25 -39 -21 0 -42 -40 -26
-50 9 -5 9 -9 1 -14 -6 -4 -11 -2 -11 4 0 6 -4 9 -9 5 -20 -12 -20 15 0 34 28
26 18 67 -12 50 -11 -5 -17 -14 -14 -19 3 -5 1 -11 -4 -14 -12 -8 -61 55 -61
77 0 10 5 17 11 17 15 0 39 26 32 34 -4 3 -2 6 4 6 6 0 14 -12 17 -26z m1709
-128 c20 -16 37 -32 37 -37 0 -10 -17 4 -80 63 -22 21 -40 41 -40 45 0 4 11
-3 23 -17 12 -14 39 -38 60 -54z m-1106 -2 c-3 -3 -12 -4 -19 -1 -8 3 -5 6 6
6 11 1 17 -2 13 -5z m6 -34 c-13 -5 -23 -14 -23 -19 0 -6 -7 -8 -15 -5 -14 6
-13 8 2 20 10 7 27 13 38 13 18 0 18 -1 -2 -9z m52 -30 c-47 -22 -83 -26 -43
-6 15 8 35 16 45 19 37 10 37 5 -2 -13z m135 10 c-8 -5 -26 -9 -40 -9 l-25 1
25 8 c14 4 32 8 40 9 13 1 13 0 0 -9z m-225 -30 c-11 -5 -32 -9 -47 -9 -15 -1
-30 -5 -33 -11 -3 -5 -14 -10 -23 -9 -13 0 -12 3 6 11 12 6 22 14 22 17 0 3
21 7 48 8 34 1 42 -1 27 -7z m174 6 c-2 -2 -22 -6 -44 -9 -28 -5 -34 -4 -20 3
19 8 73 14 64 6z m591 -102 c0 -58 -4 -103 -9 -100 -4 3 -6 16 -4 29 6 29 -24
34 -33 5 -3 -10 -23 -27 -44 -38 -46 -23 -68 -26 -52 -7 15 17 -1 39 -21 31
-20 -7 -22 -25 -5 -42 9 -9 9 -12 -3 -12 -8 0 -20 5 -26 11 -9 9 -19 6 -39
-10 -33 -26 -44 -27 -44 -2 0 21 -22 33 -46 24 -10 -4 -14 -14 -11 -29 5 -27
-3 -30 -22 -11 -10 10 -15 8 -27 -7 -8 -11 -14 -23 -14 -28 0 -11 34 -10 46 2
5 5 36 12 69 14 l60 5 -53 -9 c-29 -6 -62 -15 -72 -20 -25 -13 -60 -13 -60 1
0 6 -9 8 -21 4 -18 -6 -20 -4 -15 13 8 24 -20 38 -40 21 -19 -16 -2 -36 37
-44 17 -4 28 -9 26 -11 -7 -7 -138 -54 -150 -54 -6 0 -3 6 8 13 20 15 7 31
-18 21 -20 -7 -30 -34 -14 -34 7 0 -16 -16 -50 -36 -34 -19 -65 -39 -68 -44
-4 -6 -11 -10 -17 -10 -6 0 -5 7 3 17 9 11 3 10 -18 -6 -18 -12 -33 -25 -33
-28 0 -3 7 0 15 7 9 7 18 10 21 8 3 -3 -29 -36 -71 -74 -67 -60 -74 -70 -60
-80 13 -10 20 -9 35 4 11 8 17 19 15 22 -7 11 74 82 85 75 5 -3 7 0 5 7 -4 9
21 31 64 60 66 43 88 52 349 134 23 8 59 14 79 14 90 0 324 53 383 87 54 31
148 126 175 177 20 38 35 46 35 21 0 -8 9 -15 20 -15 43 0 54 -93 19 -163 -35
-69 -76 -114 -138 -152 -67 -40 -88 -45 -51 -12 14 12 20 18 14 14 -7 -5 -25
-12 -41 -16 -15 -4 -28 -12 -27 -17 3 -23 -216 -54 -240 -34 -8 6 -26 8 -43 4
-26 -6 -26 -5 -10 8 17 13 17 15 3 27 -17 14 -40 6 -33 -13 3 -7 -10 -11 -38
-11 -32 0 -41 3 -34 12 7 7 6 12 -2 15 -8 3 -10 11 -6 22 6 16 9 16 22 2 14
-14 43 -12 55 4 9 12 62 22 55 11 -3 -6 0 -23 8 -37 l14 -27 7 27 c4 15 4 32
0 38 -4 6 1 8 15 3 23 -7 61 17 61 38 0 13 -62 0 -72 -16 -6 -9 -10 -9 -16 0
-5 8 -20 9 -57 1 -28 -5 -60 -12 -71 -14 -19 -3 -49 -51 -49 -79 0 -5 -30 -20
-67 -32 -55 -18 -72 -19 -92 -10 -26 12 -35 27 -17 27 5 0 13 9 16 20 3 11 14
20 23 21 9 0 12 3 5 5 -12 5 -148 -38 -191 -60 -22 -12 -16 -13 54 -8 43 2 76
1 72 -3 -5 -5 -25 -8 -45 -7 -21 1 -66 -8 -101 -21 -56 -20 -63 -25 -60 -47 4
-30 34 -35 31 -5 -3 31 82 55 194 55 52 0 107 6 130 14 31 11 77 13 194 9 132
-4 165 -2 229 15 41 11 76 18 78 17 2 -2 -5 -23 -16 -47 -31 -67 -63 -167 -72
-228 -26 -159 -32 -193 -56 -290 -49 -198 -156 -361 -326 -496 -40 -31 -77
-46 -64 -25 10 16 -23 20 -39 5 -18 -18 -20 -38 -3 -28 6 4 8 3 5 -4 -4 -5
-16 -8 -26 -5 -10 3 -32 -3 -47 -13 l-29 -18 23 25 c25 29 29 49 7 49 -9 0
-12 6 -8 18 6 15 4 15 -15 -2 -23 -20 -31 -42 -10 -30 7 4 8 3 4 -5 -4 -6 -12
-9 -17 -6 -5 4 -24 -4 -42 -16 -22 -15 -16 -6 20 29 29 29 60 63 69 77 9 13
21 22 27 18 6 -3 7 -1 3 6 -4 6 -3 18 3 25 16 20 41 106 41 145 0 25 4 32 15
28 8 -4 17 -2 20 3 8 13 -6 40 -21 40 -8 0 -14 7 -14 17 0 40 -12 -2 -26 -88
-11 -69 -23 -108 -46 -145 -34 -56 -87 -118 -95 -110 -3 2 4 15 16 27 12 13
21 27 21 33 0 6 -7 0 -16 -12 -8 -12 -20 -22 -26 -22 -7 0 -6 5 2 15 15 18 6
45 -15 45 -23 0 -30 -28 -13 -48 33 -38 29 -48 -33 -81 -33 -17 -67 -31 -77
-30 -9 0 -2 5 16 10 21 6 32 16 32 28 0 26 -29 35 -50 16 -23 -21 -53 -19 -68
5 -10 17 -16 18 -37 8 -18 -8 -24 -17 -20 -29 9 -26 -30 -13 -50 17 -13 21
-18 22 -40 12 -19 -9 -31 -8 -50 2 -19 10 -31 11 -48 3 -13 -6 -30 -7 -37 -3
-10 6 -7 9 10 12 31 4 36 24 10 38 -18 10 -22 9 -27 -8 -7 -27 -53 -27 -53 -1
0 14 -7 19 -25 19 -14 0 -25 -5 -25 -11 0 -5 -5 -7 -11 -3 -8 4 -8 9 0 17 28
28 -1 78 -29 52 -15 -14 -16 -10 -15 43 2 75 36 133 141 238 47 49 72 80 66
86 -6 6 -25 -7 -52 -36 -36 -39 -45 -44 -59 -34 -14 11 -14 11 -4 -3 10 -13 6
-22 -27 -54 -22 -22 -40 -36 -40 -31 0 4 7 14 15 23 8 8 12 19 9 25 -4 6 -2 8
3 5 6 -4 15 -1 21 6 11 14 -2 57 -18 57 -13 0 -13 -27 0 -35 17 -11 11 -24
-10 -20 -11 2 -25 7 -30 10 -16 10 -12 -12 5 -29 10 -9 12 -17 5 -21 -6 -4 -8
-14 -6 -23 6 -18 -31 -88 -41 -79 -3 3 2 16 11 29 20 29 21 67 1 75 -9 3 -18
3 -21 1 -8 -9 8 -38 17 -32 5 3 9 -1 9 -9 0 -24 -11 -26 -33 -6 -31 28 -46 8
-23 -31 15 -26 15 -31 2 -36 -8 -3 -18 -14 -21 -25 -4 -11 -11 -17 -16 -13 -6
4 -4 13 5 23 20 22 20 47 1 54 -9 4 -19 -5 -29 -24 -16 -32 -12 -46 24 -94 14
-18 14 -19 -3 -6 -19 15 -91 132 -117 191 -41 91 -117 375 -125 468 l-5 57 15
-65 c8 -36 18 -78 23 -95 l9 -30 7 42 c7 37 30 63 44 48 3 -3 0 -5 -6 -5 -15
0 -15 -23 -1 -37 15 -15 39 -5 39 16 0 10 7 18 15 18 13 0 13 -3 0 -23 -17
-26 -20 -54 -5 -54 14 0 28 32 22 50 -4 11 0 11 21 -3 15 -10 27 -13 27 -7 0
6 -6 13 -14 16 -15 6 -10 40 7 51 6 3 7 1 3 -5 -4 -7 -1 -12 8 -12 8 0 17 4
20 9 8 12 -42 43 -56 35 -7 -4 -8 -3 -4 4 11 18 -5 14 -26 -5 -18 -16 -18 -16
-12 0 3 9 11 17 18 17 6 1 0 10 -13 20 -36 31 -10 24 35 -9 61 -44 135 -80
188 -90 26 -5 53 -14 59 -20 6 -6 48 -11 100 -11 49 0 86 -4 83 -9 -6 -9 22
-26 36 -23 5 1 7 -4 5 -11 -1 -8 8 -11 26 -10 26 2 28 0 23 -23 -5 -17 -2 -26
9 -30 9 -4 18 -4 22 -1 11 12 -7 54 -29 65 -18 8 -19 11 -5 11 21 1 57 -33 57
-54 0 -8 5 -15 10 -15 6 0 13 7 16 15 8 21 27 19 20 -2 -3 -10 -2 -24 3 -32
11 -17 34 -4 27 15 -4 10 12 7 57 -10 70 -26 123 -56 126 -71 6 -24 23 -35 42
-24 26 13 24 28 -5 39 -13 5 -27 14 -31 20 -13 22 4 22 43 2 29 -15 43 -17 51
-9 18 18 14 23 -44 62 -30 20 -55 40 -55 46 0 5 -9 9 -19 9 -11 0 -33 11 -49
25 -17 14 -37 25 -45 25 -9 0 -19 9 -22 21 -5 16 -12 19 -30 15 -13 -3 -27 -2
-30 4 -3 5 3 10 14 10 19 0 20 2 9 20 -15 24 -34 26 -46 4 -8 -15 -13 -14 -44
9 -72 56 -441 228 -519 244 -19 3 -61 19 -94 35 -33 15 -49 26 -35 24 18 -4
35 3 59 24 40 35 33 39 -12 8 l-32 -22 19 22 c20 23 146 92 168 92 10 0 10 -2
1 -8 -10 -7 -10 -12 0 -27 15 -20 42 -12 33 11 -3 9 1 14 13 14 11 0 28 3 38
7 15 6 16 4 5 -9 -10 -12 -9 -18 3 -28 11 -9 19 -9 28 -2 8 7 81 11 190 11
l177 1 161 55 c89 30 166 52 170 49 4 -2 25 2 45 11 25 10 70 15 140 15 l104
0 73 70 c39 38 75 70 80 70 4 0 7 -48 7 -106z m-682 81 c-8 -8 -112 -34 -117
-29 -5 5 14 11 64 23 50 11 60 12 53 6z m197 -30 c-22 -8 -51 -14 -65 -14 -17
0 -11 5 20 13 62 18 94 18 45 1z m100 -3 c-32 -20 -131 -47 -228 -63 -33 -5
-64 -12 -70 -16 -7 -4 -57 -10 -112 -14 -55 -4 -111 -10 -125 -13 -14 -4 -9 0
10 8 19 8 69 15 111 15 42 1 96 8 119 16 23 8 56 15 72 15 32 0 109 21 178 50
59 24 83 25 45 2z m69 -16 c-8 -20 -40 -21 -47 -2 -4 10 2 16 21 18 34 4 34 4
26 -16z m-521 7 c-7 -2 -19 -2 -25 0 -7 3 -2 5 12 5 14 0 19 -2 13 -5z m237
-13 c-8 -5 -26 -9 -40 -9 -23 1 -23 2 5 9 43 11 52 11 35 0z m-83 -16 c-3 -3
-12 -4 -19 -1 -8 3 -5 6 6 6 11 1 17 -2 13 -5z m-52 -14 c-11 -5 -54 -8 -95
-7 l-75 1 80 6 c44 3 87 7 95 7 8 1 6 -2 -5 -7z m270 -25 c-77 -35 -332 -112
-341 -102 -3 3 347 115 361 116 6 0 -3 -6 -20 -14z m-550 -50 c-22 -8 -56 -15
-75 -15 -19 0 -42 -5 -50 -10 -33 -22 21 -33 149 -31 69 1 122 -1 118 -5 -5
-5 -64 -9 -132 -10 -96 -2 -127 1 -136 12 -6 8 -18 14 -25 14 -8 0 -14 4 -14
10 0 16 37 30 82 30 24 0 50 5 58 10 8 5 26 10 40 9 20 0 17 -3 -15 -14z m210
5 c-3 -5 3 -10 14 -10 11 0 22 -4 25 -9 9 -14 -17 -19 -35 -8 -11 7 -27 6 -49
-1 -26 -10 -36 -9 -54 4 -20 16 -20 16 11 10 22 -4 37 -1 45 9 15 16 53 21 43
5z m-135 -18 c0 -5 -11 -14 -25 -20 -16 -7 -25 -8 -25 -1 0 5 10 14 23 19 29
11 27 11 27 2z m-320 -12 c-20 -13 -33 -13 -25 0 3 6 14 10 23 10 15 0 15 -2
2 -10z m-605 -14 c-11 -7 -32 -16 -46 -19 -40 -10 -79 -55 -79 -90 0 -23 -3
-28 -11 -20 -28 28 35 106 106 131 42 15 53 14 30 -2z m1872 -2 c-3 -3 -20
-10 -39 -14 -18 -5 -44 -12 -58 -16 -14 -4 -22 -3 -18 1 4 4 29 14 55 21 55
15 69 16 60 8z m-837 -24 c-19 -13 -30 -13 -30 0 0 6 10 10 23 10 18 0 19 -2
7 -10z m705 1 c-6 -5 -28 -11 -50 -14 l-40 -6 35 14 c41 16 69 19 55 6z
m-1620 -51 c18 -19 17 -20 -2 -20 -12 0 -23 8 -26 20 -3 11 -2 20 2 20 5 0 16
-9 26 -20z m225 -140 c0 -5 -5 -10 -11 -10 -5 0 -7 5 -4 10 3 6 8 10 11 10 2
0 4 -4 4 -10z m211 -28 c-7 -2 -18 1 -23 6 -8 8 -4 9 13 5 13 -4 18 -8 10 -11z
m-141 -6 c0 -3 -4 -8 -10 -11 -5 -3 -10 -1 -10 4 0 6 5 11 10 11 6 0 10 -2 10
-4z m320 -59 c90 -40 217 -106 175 -92 -62 21 -75 28 -75 36 0 5 -7 9 -16 9
-9 0 -28 6 -42 14 -15 8 -52 25 -82 38 -30 14 -66 30 -80 36 l-25 12 25 -6
c14 -3 68 -24 120 -47z m-366 11 c28 -18 67 -45 88 -60 23 -18 43 -26 55 -22
14 4 15 4 4 -4 -11 -8 -8 -13 17 -26 26 -14 31 -14 36 -1 7 18 -2 44 -22 68
-10 11 -11 17 -3 17 6 0 19 -13 29 -29 16 -26 19 -28 37 -15 17 12 17 16 4 41
-8 16 -18 31 -24 35 -6 4 -2 8 8 8 11 0 21 -9 24 -20 4 -15 12 -18 37 -14 17
2 25 2 19 -2 -7 -3 -13 -12 -13 -20 0 -9 -5 -12 -11 -8 -14 8 -29 -14 -29 -43
0 -18 -6 -23 -25 -23 -14 0 -25 -4 -25 -9 0 -14 106 -51 145 -51 19 0 35 -4
35 -10 0 -5 -14 -7 -32 -4 -121 20 -158 37 -293 137 -44 33 -93 66 -110 73
-16 7 -24 13 -16 14 8 0 37 -14 65 -32z m103 10 c-3 -8 -6 -5 -6 6 -1 11 2 17
5 13 3 -3 4 -12 1 -19z m43 2 c0 -5 -4 -10 -10 -10 -5 0 -10 5 -10 10 0 6 5
10 10 10 6 0 10 -4 10 -10z m-243 -52 c-3 -8 -6 -5 -6 6 -1 11 2 17 5 13 3 -3
4 -12 1 -19z m123 -23 c7 -8 8 -15 2 -15 -5 0 -15 7 -22 15 -7 8 -8 15 -2 15
5 0 15 -7 22 -15z m348 -5 c7 -11 17 -20 23 -20 7 0 18 -8 25 -17 13 -17 15
-17 28 0 18 23 24 21 19 -7 -7 -33 11 -40 43 -19 27 18 28 18 21 -6 -3 -13 -2
-33 4 -43 6 -11 6 -18 0 -18 -5 0 -12 7 -15 16 -4 11 -13 14 -31 10 -14 -4
-25 -3 -25 1 0 5 -4 15 -10 23 -7 12 -11 12 -28 -3 -19 -17 -19 -17 -15 6 7
36 -15 43 -39 12 -19 -24 -21 -25 -38 -10 -14 13 -23 14 -39 6 -26 -14 -38 3
-17 25 9 8 16 22 16 29 0 8 6 12 13 9 8 -3 20 2 27 11 16 20 23 19 38 -5z
m-461 -22 c-3 -7 -5 -2 -5 12 0 14 2 19 5 13 2 -7 2 -19 0 -25z m681 -50 c-2
-27 -16 -48 -32 -48 -8 0 -8 2 0 8 16 11 24 50 10 56 -6 2 -3 5 6 5 11 1 16
-6 16 -21z m-570 -33 c-3 -3 -9 2 -12 12 -6 14 -5 15 5 6 7 -7 10 -15 7 -18z
m413 -33 c-16 -5 -41 5 -41 17 0 7 10 6 26 -1 15 -7 21 -14 15 -16z m279 18
c0 -5 -5 -10 -11 -10 -5 0 -7 5 -4 10 3 6 8 10 11 10 2 0 4 -4 4 -10z m-182
-19 c20 2 46 -2 57 -8 49 -25 95 -35 110 -23 12 10 15 9 15 -9 0 -14 10 -26
28 -34 15 -6 33 -17 40 -24 7 -7 23 -14 35 -14 15 -1 17 -3 6 -6 -9 -2 -58 17
-109 42 -52 25 -101 45 -111 45 -10 0 -21 5 -24 10 -3 6 -26 10 -50 10 -49 0
-75 8 -75 21 0 6 9 5 21 -1 11 -6 37 -10 57 -9z m128 2 c-10 -11 -36 -12 -36
-2 0 5 10 9 22 9 12 0 18 -3 14 -7z m139 -40 c68 -39 75 -47 50 -57 -8 -3 -15
0 -15 6 0 11 -29 37 -43 38 -5 0 -5 -4 -2 -10 3 -5 -1 -10 -10 -10 -11 0 -15
5 -12 15 4 8 -5 23 -20 35 -39 30 -19 24 52 -17z m865 -332 c-47 -25 -93 -71
-160 -158 -30 -40 -59 -72 -64 -73 -4 0 8 20 28 45 21 25 34 50 30 56 -5 8 -3
9 7 4 11 -7 12 -6 2 7 -11 13 0 24 78 76 50 34 96 62 102 62 7 -1 -4 -9 -23
-19z m139 -129 c-123 -61 -183 -107 -344 -263 -78 -76 -150 -136 -180 -151
-67 -34 -158 -53 -193 -40 -15 6 -40 13 -57 17 -36 8 -127 46 -122 51 2 2 30
-5 63 -16 72 -24 105 -25 175 -4 96 29 160 72 304 204 90 83 256 184 370 226
93 35 89 28 -16 -24z m-2956 -29 c-7 -2 -19 -2 -25 0 -7 3 -2 5 12 5 14 0 19
-2 13 -5z m1388 -34 c-6 -24 -9 -28 -10 -12 -1 24 9 56 16 50 2 -3 0 -20 -6
-38z m-1514 -15 c-3 -3 -12 -4 -19 -1 -8 3 -5 6 6 6 11 1 17 -2 13 -5z m1554
-119 c13 -11 44 -30 69 -42 25 -13 36 -21 25 -20 -33 5 -77 33 -135 88 -48 45
-32 34 41 -26z m-1893 -8 c-37 -22 -50 -46 -25 -48 6 -1 1 -5 -13 -9 -21 -7
-22 -8 -5 -9 11 0 42 6 69 14 27 8 51 13 53 11 8 -7 -92 -35 -147 -41 -30 -3
-73 -8 -95 -10 -37 -5 -33 -2 40 34 44 22 94 48 110 59 17 11 35 21 40 21 6 0
-7 -10 -27 -22z m-3 -37 c3 -6 -1 -7 -9 -4 -18 7 -21 14 -7 14 6 0 13 -4 16
-10z m1804 -36 c14 -12 -19 -1 -35 12 -18 14 -18 14 6 3 14 -6 27 -13 29 -15z
m-1146 9 c-13 -2 -33 -2 -45 0 -13 2 -3 4 22 4 25 0 35 -2 23 -4z m1957 -29
c0 -2 -9 -4 -20 -4 -11 0 -20 4 -20 9 0 5 9 7 20 4 11 -3 20 -7 20 -9z m-1703
-40 c-5 -5 -97 30 -97 38 0 4 23 -3 50 -14 28 -11 49 -22 47 -24z m1414 18
c-7 -2 -18 1 -23 6 -8 8 -4 9 13 5 13 -4 18 -8 10 -11z m-834 -22 c34 -16 67
-30 72 -30 5 0 35 -25 66 -55 32 -30 60 -55 64 -55 3 0 19 -12 34 -25 26 -23
29 -33 38 -132 5 -60 11 -121 13 -138 3 -16 5 -43 6 -60 2 -28 3 -27 13 13 7
23 19 47 27 53 11 8 12 12 3 16 -15 6 -17 43 -3 43 6 0 10 6 10 13 0 19 36 50
48 43 6 -3 9 1 8 9 -3 22 -47 65 -59 58 -6 -3 -7 -1 -3 5 4 7 5 12 2 12 -2 0
-11 3 -19 6 -12 4 -14 0 -11 -18 5 -20 4 -21 -6 -5 -6 9 -9 21 -6 26 3 5 -1
12 -10 15 -9 4 -14 9 -12 12 13 12 109 -60 145 -109 53 -72 63 -98 63 -170 -1
-91 -36 -125 -164 -158 -69 -18 -71 -18 -91 1 -12 11 -25 20 -31 20 -5 1 -27
19 -49 42 -22 22 -34 37 -26 33 9 -5 19 -1 28 10 7 11 13 14 13 7 0 -6 8 -9
18 -6 14 5 14 4 3 -4 -8 -6 -16 -20 -18 -33 -3 -18 -1 -20 12 -9 12 10 18 10
32 -1 15 -13 15 -12 3 8 -8 12 -19 19 -25 15 -5 -3 -3 2 4 12 14 17 16 17 27
1 12 -16 13 -16 11 3 -1 16 -8 20 -29 20 -16 -1 -31 2 -35 5 -3 4 -13 1 -21
-6 -13 -10 -15 -9 -9 6 4 11 -1 25 -12 36 -25 25 -36 14 -14 -13 18 -21 18
-21 -3 -3 -21 18 -28 47 -10 44 5 -1 10 4 11 11 0 7 7 17 15 22 13 8 12 10 -2
10 -10 0 -18 -5 -18 -10 0 -6 -10 -8 -24 -4 -24 6 -44 -10 -26 -21 5 -3 10 -1
10 4 0 6 5 11 11 11 6 0 7 -5 2 -12 -15 -26 -12 -43 14 -65 14 -13 21 -23 16
-23 -6 0 -16 7 -24 16 -7 9 -32 29 -56 45 -51 36 -54 53 -12 68 40 14 52 14
44 1 -3 -5 1 -10 9 -10 25 0 19 26 -6 27 -13 1 -24 7 -26 13 -2 5 -8 10 -14
10 -6 0 -6 -6 2 -15 10 -12 10 -15 -3 -15 -8 0 -18 6 -20 13 -3 6 -6 3 -6 -7
-1 -14 -4 -17 -11 -10 -7 7 -5 21 6 42 8 18 13 38 11 45 -3 7 -6 5 -6 -5 -1
-10 -5 -18 -10 -18 -5 0 -13 -24 -18 -52 -8 -48 -10 -41 -15 80 -4 73 -11 139
-17 146 -6 6 -13 32 -17 56 -4 25 -12 48 -18 52 -6 4 -8 9 -5 12 3 3 14 -2 25
-12 24 -22 61 -27 43 -6 -9 11 -8 14 2 15 8 0 5 4 -6 9 l-20 9 20 0 c17 1 15
4 -10 21 -43 29 -21 25 52 -10z m250 -9 c143 -61 253 -78 353 -56 55 13 -42
-25 -106 -41 -65 -16 -101 -15 -175 6 -41 12 -124 73 -124 92 -1 7 -6 12 -13
11 -7 -2 -12 2 -12 7 0 14 -1 14 77 -19z m928 19 c3 -5 2 -10 -4 -10 -5 0 -13
5 -16 10 -3 6 -2 10 4 10 5 0 13 -4 16 -10z m-49 -9 c-6 -9 -46 -22 -46 -15 0
3 10 9 23 14 29 11 29 11 23 1z m-208 -16 c9 -13 32 -17 32 -6 0 5 -8 12 -17
14 -12 3 -10 5 7 6 14 0 33 -6 43 -13 16 -12 16 -16 4 -23 -12 -6 -77 -161
-137 -323 -18 -47 -70 -408 -70 -480 0 -30 -5 -71 -11 -90 -7 -19 -15 -114
-20 -210 -4 -96 -11 -213 -15 -260 -7 -98 12 -221 47 -295 24 -52 25 -66 14
-177 -6 -60 -5 -78 5 -78 6 0 43 30 81 67 68 66 95 78 42 19 -25 -28 -26 -29
-3 -10 54 45 52 34 -3 -21 -33 -32 -71 -78 -86 -102 -26 -42 -28 -50 -23 -131
5 -95 31 -169 76 -211 22 -21 23 -25 10 -49 -16 -31 -18 -138 -3 -257 5 -44
13 -140 19 -213 5 -73 14 -141 19 -150 4 -9 11 -33 15 -53 4 -21 18 -53 31
-74 26 -37 26 -81 1 -97 -8 -5 -7 -11 2 -20 8 -8 12 -54 12 -151 0 -138 -8
-221 -34 -352 -19 -93 -35 -226 -42 -358 l-7 -107 -64 0 -63 0 6 113 c3 61 10
128 16 147 6 19 13 161 16 315 4 154 9 249 12 212 5 -61 6 -66 18 -46 8 11 9
18 3 14 -12 -7 -14 17 -4 54 5 21 7 20 19 -15 7 -21 14 -65 15 -99 3 -76 17
-120 19 -55 0 25 5 63 10 85 5 22 10 96 11 164 1 128 5 155 20 145 5 -3 9 -1
9 5 0 20 -19 21 -25 1 -8 -25 -21 -26 -29 -3 -10 24 -25 -2 -18 -29 3 -12 -1
-24 -9 -29 -11 -6 -14 -24 -12 -75 2 -37 1 -65 -3 -62 -10 10 -13 138 -3 138
5 0 9 5 9 11 0 5 -4 7 -10 4 -5 -3 -10 -1 -10 4 0 6 -4 11 -10 11 -5 0 -11
-30 -13 -67 -2 -38 -4 10 -5 105 -1 95 -6 180 -11 190 -9 17 -26 107 -42 227
-11 79 -32 187 -40 200 -7 11 -18 141 -21 247 -1 37 -6 64 -10 62 -4 -3 -9 12
-9 33 -1 21 -3 48 -4 61 -1 12 2 25 7 28 5 4 9 -2 8 -12 -5 -49 1 -94 12 -92
8 2 12 -9 11 -32 -2 -35 -2 -35 6 -5 4 17 6 39 3 50 -2 11 -5 28 -5 37 -1 9
-5 14 -9 12 -4 -3 -8 -1 -8 5 0 5 5 13 10 16 6 3 10 12 10 18 0 7 -4 6 -11 -3
-7 -11 -9 -3 -5 30 3 25 3 37 0 28 -3 -10 -10 -18 -15 -18 -6 0 -7 -6 -3 -12
4 -7 3 -10 -1 -5 -13 11 -14 47 -1 39 6 -3 3 6 -6 21 -10 14 -18 37 -19 49 -1
21 -7 -2 -23 -86 -10 -54 -18 -41 -11 19 10 92 23 125 48 125 18 0 19 2 7 10
-8 5 -11 10 -7 10 4 0 3 10 -4 21 -8 15 -8 19 0 15 14 -9 14 35 2 101 -15 76
-33 322 -33 458 0 90 16 257 26 273 7 11 14 81 31 322 5 71 4 73 -9 45 -9 -16
-15 -42 -16 -57 0 -37 -17 -78 -32 -78 -9 0 -9 3 0 12 14 14 16 28 3 28 -5 0
-12 -9 -16 -19 -3 -11 -11 -18 -18 -15 -8 3 -13 -11 -14 -42 -3 -75 -13 -93
-143 -255 -21 -26 -37 -36 -54 -35 -16 1 -21 5 -15 12 5 6 5 15 1 20 -4 4 1 2
11 -6 16 -12 21 -10 40 10 l22 24 -23 -19 c-19 -16 -25 -17 -32 -6 -4 8 -6 21
-3 30 3 9 -3 5 -13 -8 -10 -14 -21 -41 -25 -60 l-7 -36 -1 32 c-1 32 65 183
80 183 4 0 23 21 40 48 31 45 39 52 56 55 13 2 83 91 89 112 2 11 9 67 14 125
12 128 25 258 44 410 12 102 14 108 15 53 1 -69 17 -86 24 -25 2 20 4 -5 5
-56 1 -59 6 -91 12 -87 6 3 10 20 10 37 0 29 11 72 31 123 4 11 15 45 25 75
10 30 28 65 41 77 23 22 68 27 81 8z m119 9 c-3 -3 -12 -4 -19 -1 -8 3 -5 6 6
6 11 1 17 -2 13 -5z m-1900 -80 c-3 -3 -12 -4 -19 -1 -8 3 -5 6 6 6 11 1 17
-2 13 -5z m160 -40 c-3 -3 -12 -4 -19 -1 -8 3 -5 6 6 6 11 1 17 -2 13 -5z
m1077 -173 c-9 -9 -53 -8 -47 2 3 4 12 6 20 3 11 -5 13 -2 9 10 -5 14 -4 15 9
4 9 -7 13 -16 9 -19z m1009 -111 c4 -15 0 -20 -16 -21 -12 0 -16 -3 -9 -6 6
-2 12 -10 12 -16 -1 -7 -9 -2 -20 11 -18 22 -20 22 -50 7 -29 -15 -41 -35 -19
-35 5 0 8 4 5 9 -9 13 36 22 51 9 13 -11 8 -53 -9 -75 -9 -12 -5 -221 7 -325
5 -42 2 -71 -10 -108 -16 -48 -18 -50 -48 -46 -45 6 -98 26 -92 36 3 5 0 11
-5 13 -6 3 -5 4 2 3 24 -6 46 13 41 34 -3 11 -9 17 -14 14 -5 -3 -9 0 -9 6 0
6 -5 8 -11 5 -6 -4 -8 -13 -5 -21 5 -14 -22 -34 -46 -34 -11 0 -10 2 0 9 11 6
6 15 -18 38 -34 32 -33 53 2 53 14 0 18 5 14 16 -3 9 -6 21 -6 26 0 6 -3 8 -7
5 -3 -4 -12 -2 -20 4 -11 9 -11 15 -1 28 7 9 8 13 3 8 -4 -4 -17 1 -28 10 -11
10 -17 12 -13 5 6 -9 1 -11 -18 -8 -21 4 -26 1 -24 -12 2 -9 -4 -17 -15 -18
-12 -1 -13 -1 -2 3 8 2 13 9 9 14 -3 6 -3 17 1 27 5 13 8 14 14 3 7 -10 10 -9
14 3 4 10 1 16 -8 16 -23 0 -27 19 -11 52 9 17 15 33 13 35 -2 1 -10 -9 -18
-25 -16 -31 -34 -52 -45 -52 -5 0 -3 5 4 12 7 7 12 19 12 28 -1 9 -6 6 -15
-10 -8 -14 -12 -33 -9 -42 3 -10 1 -18 -5 -18 -25 0 -10 60 27 104 20 24 46
57 56 72 l19 27 12 -23 c8 -15 15 -19 19 -11 4 6 12 8 18 5 7 -4 8 -2 4 4 -4
6 -13 9 -21 5 -8 -3 -15 -1 -15 5 0 5 9 12 20 15 11 3 18 11 15 19 -5 14 81
85 92 75 3 -4 -2 -9 -11 -13 -9 -3 -13 -10 -10 -15 3 -6 0 -16 -6 -25 -11 -12
-9 -12 11 -2 14 7 33 21 44 31 26 25 128 85 136 80 4 -1 9 -12 12 -23z m21
-46 c3 -8 2 -12 -4 -9 -6 3 -10 10 -10 16 0 14 7 11 14 -7z m-34 -89 c-10 -40
-11 -84 -5 -172 15 -197 10 -297 -14 -336 -21 -35 -66 -65 -78 -53 -4 4 3 9
16 13 12 3 20 11 17 18 -2 7 2 21 9 32 8 10 15 13 15 7 0 -5 -5 -15 -12 -22
-9 -9 -9 -12 0 -12 13 0 13 0 18 40 1 14 8 44 15 66 10 34 10 64 -1 156 -14
122 -10 255 9 302 18 46 25 21 11 -39z m78 45 c3 -7 0 -10 -7 -6 -6 4 -11 4
-12 -1 0 -4 -2 -16 -4 -26 -2 -10 0 -31 5 -47 7 -24 5 -30 -11 -35 -10 -4 -19
-15 -19 -26 0 -16 3 -18 19 -10 10 6 22 7 26 3 5 -4 6 1 2 10 -3 9 0 19 9 22
8 3 14 12 14 21 0 8 5 15 10 15 12 0 12 -2 0 -34 -11 -30 -4 -56 16 -56 8 0
14 -9 14 -20 0 -11 -6 -20 -14 -20 -21 0 -40 -26 -25 -36 8 -4 21 4 36 22 12
16 23 25 23 20 0 -5 7 -3 15 4 11 9 13 16 5 24 -5 5 -10 17 -10 26 1 12 3 11
11 -3 8 -13 14 -15 23 -8 8 7 15 4 24 -9 10 -16 8 -23 -10 -39 -11 -11 -26
-18 -31 -14 -6 3 -7 1 -4 -5 11 -16 -104 -122 -132 -122 -27 0 -23 10 5 14 10
2 20 8 22 14 2 7 -3 10 -12 6 -8 -3 -22 1 -31 9 -17 18 -21 82 -4 72 6 -4 8
-14 5 -22 -3 -8 -1 -11 4 -8 6 3 10 -3 10 -15 0 -12 4 -18 10 -15 6 4 17 1 25
-5 11 -9 15 -9 15 -1 0 6 -5 11 -12 11 -9 0 -9 3 0 12 20 20 14 31 -13 24 -14
-4 -25 -2 -25 4 0 5 7 10 15 10 8 0 15 7 15 16 0 14 -3 14 -15 4 -12 -10 -15
-10 -15 4 0 9 -4 16 -10 16 -5 0 -10 -4 -10 -10 0 -5 -5 -10 -11 -10 -20 0 -5
149 19 192 11 20 18 39 14 43 -4 4 -1 6 7 3 8 -2 17 -10 19 -18z m83 -45 c9
-18 9 -19 -4 -3 -8 10 -18 14 -22 10 -5 -4 -5 -1 -1 6 4 6 3 12 -1 12 -5 0
-15 -6 -23 -12 -11 -10 -11 -9 0 6 12 15 12 20 3 23 -7 3 -13 10 -13 16 0 14
49 -32 61 -58z m-1381 -93 c0 -43 -9 -36 -64 47 -67 100 -66 113 3 46 51 -49
61 -65 61 -93z m1298 93 c-3 -3 -9 2 -12 12 -6 14 -5 15 5 6 7 -7 10 -15 7
-18z m150 -43 c21 -31 30 -55 26 -65 -5 -13 -2 -16 10 -11 12 4 16 0 16 -16 0
-19 -1 -20 -16 -6 -8 9 -20 16 -26 16 -7 0 -7 4 0 13 9 10 3 26 -23 65 -18 29
-31 52 -27 52 4 0 22 -22 40 -48z m-1544 -18 c-19 -15 -19 -15 2 -9 16 4 29
-5 58 -41 20 -26 36 -51 36 -56 0 -5 5 -6 10 -3 6 3 10 23 10 44 0 48 7 55 33
31 19 -18 20 -23 7 -77 -17 -74 -15 -101 15 -187 13 -38 22 -73 19 -78 -3 -4
-1 -8 4 -8 5 0 13 -15 19 -32 6 -18 25 -71 42 -118 l31 -85 -25 28 c-14 15
-23 32 -20 37 3 6 1 10 -4 10 -6 0 -11 5 -11 11 0 5 6 7 13 4 6 -4 4 0 -5 8
-10 8 -18 21 -18 30 0 9 -4 19 -10 22 -5 3 -10 14 -10 23 -1 9 -9 35 -20 57
-11 22 -19 48 -20 58 0 9 -4 17 -10 17 -5 0 -10 9 -10 19 0 11 -4 22 -9 26 -5
3 -12 20 -16 38 -9 42 -59 132 -101 181 -26 30 -31 42 -23 53 6 7 16 13 22 13
6 0 2 -7 -9 -16z m856 -83 c0 -10 -6 -18 -12 -17 -7 0 -13 -3 -13 -9 0 -5 4
-9 9 -7 12 4 0 -111 -16 -154 -9 -25 -9 -45 0 -84 7 -28 12 -66 12 -84 0 -18
7 -47 15 -64 15 -28 15 -34 0 -61 -17 -33 -18 -47 -4 -43 18 4 8 -26 -16 -52
-30 -33 -31 -40 -5 -33 17 4 18 2 9 -16 -7 -12 -21 -35 -33 -52 -13 -16 -26
-39 -30 -50 -5 -13 -10 -16 -13 -7 -3 6 -9 9 -15 6 -6 -4 -5 -10 3 -15 11 -6
8 -14 -11 -34 -22 -23 -25 -24 -30 -8 -7 19 13 319 31 488 6 55 14 132 18 172
3 39 8 74 11 77 7 6 84 64 88 65 1 1 2 -7 2 -18z m745 -15 c7 3 15 -2 19 -11
3 -9 2 -13 -4 -10 -6 3 -10 -1 -10 -9 0 -25 24 -14 30 14 4 20 9 13 24 -38 16
-52 17 -68 8 -83 -10 -15 -10 -24 -1 -42 7 -12 12 -23 11 -24 -7 -10 0 -43 9
-43 5 0 9 12 8 28 -3 46 0 72 11 72 18 0 11 -84 -10 -117 -11 -18 -17 -33 -14
-33 2 0 -1 -6 -8 -14 -9 -10 -17 -11 -25 -4 -9 7 -13 6 -14 -3 0 -10 -2 -10
-5 -2 -3 7 0 22 7 34 9 17 9 24 0 27 -6 2 -8 9 -5 14 5 7 2 8 -6 3 -10 -6 -12
-3 -7 11 7 18 6 18 -6 2 -8 -10 -17 -15 -20 -11 -4 3 -9 -2 -13 -11 -3 -9 -10
-13 -15 -10 -5 3 -6 10 -3 16 5 7 2 8 -6 3 -10 -6 -12 -4 -6 11 5 12 4 16 -3
9 -12 -12 -2 -67 10 -59 5 3 9 -1 9 -8 1 -7 7 1 15 17 7 17 14 24 14 18 1 -7
4 -12 9 -10 8 2 12 -6 12 -26 0 -17 -24 -19 -77 -4 -44 12 -57 27 -25 27 15 1
15 2 -2 15 -24 18 -60 20 -50 3 5 -8 2 -9 -9 -5 -10 3 -17 3 -17 -2 0 -5 -16
-21 -36 -36 -34 -26 -36 -26 -29 -6 5 16 2 21 -10 21 -14 0 -16 5 -10 28 4 15
7 37 7 50 -2 29 4 28 38 -9 18 -20 34 -30 44 -26 24 9 19 26 -9 37 -14 5 -25
15 -25 21 0 18 164 187 174 179 5 -5 14 -6 21 -4z m-715 -86 l-8 -35 -1 31
c-1 17 2 34 6 37 11 12 12 3 3 -33z m115 -10 c11 10 12 7 2 -14 -12 -25 -27
-17 -26 14 0 11 2 11 6 2 4 -10 8 -10 18 -2z m705 -30 c0 -5 -5 -10 -11 -10
-5 0 -7 5 -4 10 3 6 8 10 11 10 2 0 4 -4 4 -10z m-680 -20 c0 -5 -4 -10 -10
-10 -5 0 -10 5 -10 10 0 6 5 10 10 10 6 0 10 -4 10 -10z m-13 -92 c-3 -8 -6
-5 -6 6 -1 11 2 17 5 13 3 -3 4 -12 1 -19z m743 -8 c0 -5 -5 -10 -11 -10 -5 0
-7 5 -4 10 3 6 8 10 11 10 2 0 4 -4 4 -10z m-293 -35 c8 -9 13 -19 10 -22 -6
-5 -37 21 -37 31 0 10 11 6 27 -9z m273 -44 c-6 -22 -15 -43 -20 -46 -6 -4 -6
5 1 22 6 15 10 30 10 33 -2 11 11 41 16 37 2 -3 -1 -23 -7 -46z m-610 3 c0 -2
-9 -4 -20 -4 -11 0 -20 4 -20 9 0 5 9 7 20 4 11 -3 20 -7 20 -9z m206 -41
c-14 -26 -25 -44 -26 -39 0 14 42 98 47 92 2 -2 -7 -26 -21 -53z m-116 37 c0
-5 -5 -10 -11 -10 -5 0 -7 5 -4 10 3 6 8 10 11 10 2 0 4 -4 4 -10z m415 -40
c-3 -5 -11 -10 -16 -10 -6 0 -7 5 -4 10 3 6 11 10 16 10 6 0 7 -4 4 -10z m-36
-13 c-2 -1 -15 -11 -29 -22 l-25 -20 19 23 c11 12 24 22 29 22 6 0 8 -1 6 -3z
m102 -30 c-10 -9 -11 -8 -5 6 3 10 9 15 12 12 3 -3 0 -11 -7 -18z m-1195 -59
c-18 -26 -22 -17 -5 14 6 11 13 17 16 15 3 -3 -2 -16 -11 -29z m-156 12 c0 -5
-5 -10 -11 -10 -5 0 -7 5 -4 10 3 6 8 10 11 10 2 0 4 -4 4 -10z m629 -61 c-9
-9 -29 -39 -45 -65 -15 -27 -38 -61 -52 -76 l-25 -27 27 -7 c19 -5 25 -11 21
-24 -3 -9 -12 -54 -20 -98 -8 -45 -19 -90 -25 -101 -10 -20 3 -40 15 -21 15
24 25 6 25 -45 0 -43 3 -55 16 -55 21 0 -35 -77 -101 -138 l-50 -47 -3 27 c-2
15 2 52 7 84 10 54 9 60 -20 122 -31 64 -53 192 -33 192 5 0 29 18 54 40 34
30 42 41 31 48 -10 8 -9 12 6 23 11 8 32 36 48 62 21 38 25 51 15 57 -10 6 -9
13 4 31 20 29 21 49 1 49 -13 0 -13 3 1 19 16 18 18 18 69 -7 49 -24 51 -26
34 -43z m417 46 c-19 -14 -17 -15 19 -15 42 0 125 -27 125 -41 0 -5 25 -24 55
-44 58 -37 56 -33 60 -128 1 -16 7 -32 14 -36 16 -10 11 -147 -5 -144 -7 1
-10 -6 -7 -17 9 -34 -40 -93 -92 -113 -18 -6 -18 -6 -3 5 9 7 26 20 37 28 20
13 20 15 4 22 -16 6 -15 7 3 7 12 1 25 8 28 17 4 11 2 15 -7 11 -8 -3 -14 1
-14 8 0 8 5 13 11 12 6 -1 12 8 14 21 2 12 8 20 13 17 10 -7 10 18 0 55 -6 23
-8 23 -14 6 -5 -12 -3 -23 5 -28 10 -6 10 -10 -1 -17 -10 -7 -19 -4 -27 7 -7
9 -16 14 -20 9 -4 -4 2 -17 14 -30 28 -30 28 -32 -8 -33 -16 -1 -28 3 -27 9 4
20 -30 19 -35 -1 -4 -15 -1 -18 13 -15 14 4 19 0 19 -16 0 -28 -14 -27 -42 3
-19 19 -28 22 -47 15 -18 -7 -22 -14 -18 -32 5 -19 4 -20 -6 -6 -7 9 -18 14
-24 12 -7 -3 -13 0 -13 6 0 6 9 11 21 11 11 0 18 4 15 9 -3 5 2 12 11 15 15 6
15 8 1 23 -23 23 -52 10 -38 -17 8 -16 8 -20 -4 -20 -8 0 -19 8 -25 17 -17 31
-23 6 -7 -31 8 -20 12 -36 8 -36 -3 0 -1 -5 6 -12 7 -7 12 -26 11 -42 l-1 -31
-8 30 c-4 17 -13 44 -19 60 -11 27 -13 28 -23 12 -7 -13 -7 -22 1 -30 23 -23
11 -62 -35 -110 -26 -27 -48 -46 -50 -44 -2 2 5 12 16 22 24 22 27 43 3 24
-15 -13 -15 -12 -5 6 6 11 16 27 22 35 9 12 10 11 5 -7 -8 -29 2 -29 26 -1 20
23 24 45 10 66 -6 10 -19 0 -51 -37 -24 -28 -48 -51 -54 -51 -5 0 7 17 27 38
20 21 37 44 37 52 0 10 -5 8 -19 -6 -25 -26 -60 -54 -67 -54 -3 0 23 31 59 70
36 38 66 80 69 92 5 31 -2 59 -13 52 -5 -3 -7 -10 -3 -15 3 -5 -6 -29 -19 -52
-27 -45 -103 -124 -92 -94 4 10 2 17 -4 17 -6 0 -11 -4 -11 -10 0 -5 -5 -10
-11 -10 -6 0 11 26 38 58 62 72 108 151 96 163 -6 6 -17 -6 -29 -28 -15 -27
-26 -37 -40 -35 -15 2 -16 1 -5 -7 12 -7 10 -15 -7 -43 -26 -42 -72 -83 -94
-84 -23 -2 -23 19 -2 37 15 12 16 11 10 -9 -10 -31 1 -28 32 10 30 35 43 89
16 67 -8 -7 -14 -8 -13 -3 3 13 -13 46 -32 67 -17 18 -18 18 -32 -5 -8 -12
-15 -40 -16 -61 -2 -40 -18 -93 -27 -85 -2 3 0 18 6 33 6 15 10 45 8 65 -1 24
4 44 15 55 19 18 22 50 7 60 -6 4 -1 14 12 25 l23 19 -25 9 c-17 6 -27 6 -32
-1 -8 -14 -1 -51 12 -55 5 -2 10 -8 10 -13 0 -5 -11 -2 -24 7 -14 8 -22 22
-20 29 4 9 -1 13 -13 11 -10 -2 -19 -11 -21 -22 -2 -14 -1 -16 6 -6 7 11 10 9
14 -6 4 -15 2 -19 -8 -15 -8 3 -14 0 -14 -6 0 -6 -4 -11 -10 -11 -5 0 -7 6 -4
14 3 8 1 17 -5 21 -7 4 -11 -3 -11 -17 0 -14 -17 -38 -45 -64 -47 -42 -62 -45
-22 -3 25 26 32 96 9 91 -16 -3 -16 44 0 54 8 5 9 1 4 -12 -5 -13 -4 -16 3 -9
12 12 3 55 -10 55 -5 0 -12 0 -16 0 -12 0 -9 -90 2 -90 6 0 2 -5 -7 -11 -10
-5 -18 -15 -18 -22 0 -7 4 -6 10 3 7 10 10 11 10 2 0 -7 -6 -15 -14 -18 -8 -3
-15 -13 -15 -22 0 -9 -4 -33 -9 -52 l-10 -35 -1 30 c-1 17 6 56 14 88 8 31 12
63 9 72 -4 9 -1 15 7 15 11 0 11 2 0 9 -12 8 -8 18 17 59 18 27 42 58 53 68
15 13 12 5 -10 -27 -33 -49 -40 -68 -18 -51 7 6 20 6 32 1 18 -9 18 -9 -2 -5
-25 5 -30 -6 -10 -22 17 -15 66 -9 102 11 22 13 24 16 8 12 -14 -4 -23 -2 -23
4 0 6 4 11 9 11 5 0 16 6 23 13 7 7 31 26 53 43 33 26 43 30 60 20 11 -6 23
-15 26 -20 8 -10 29 1 29 15 0 5 -6 9 -12 8 -7 -1 -22 -1 -33 0 -19 1 -19 1 1
21 16 16 25 18 52 11 19 -6 34 -6 37 0 4 5 0 9 -7 10 -27 1 29 18 62 18 33 0
34 -1 16 -14z m117 8 c-7 -2 -21 -2 -30 0 -10 3 -4 5 12 5 17 0 24 -2 18 -5z
m274 1 c-3 -3 -12 -4 -19 -1 -8 3 -5 6 6 6 11 1 17 -2 13 -5z m-1318 -88 c-9
-8 -10 -7 -5 7 3 10 7 26 7 35 1 9 4 6 6 -7 3 -13 -1 -28 -8 -35z m1606 24 c3
-6 -1 -7 -9 -4 -18 7 -21 14 -7 14 6 0 13 -4 16 -10z m-1028 -32 c-3 -8 -6 -5
-6 6 -1 11 2 17 5 13 3 -3 4 -12 1 -19z m1173 -43 c14 -13 41 -31 61 -39 20
-9 45 -27 55 -40 11 -14 44 -39 74 -56 30 -16 49 -30 42 -30 -16 0 -74 31 -84
45 -4 6 -8 6 -8 1 0 -4 -15 9 -34 30 -30 33 -36 36 -50 25 -14 -12 -16 -12
-11 0 6 16 -43 49 -62 42 -7 -3 -13 0 -13 7 0 6 5 8 10 5 6 -3 10 -2 10 3 0
10 -60 42 -78 42 -6 0 -14 4 -17 10 -11 18 80 -21 105 -45z m-1766 -14 c-4
-23 -9 -40 -11 -37 -3 3 -2 23 2 46 4 23 9 39 11 37 3 -2 2 -23 -2 -46z m1391
39 c27 -7 28 -8 5 -8 -14 0 -45 3 -70 7 l-45 8 40 1 c22 0 54 -4 70 -8z m96
-25 c24 -9 63 -25 86 -36 23 -11 48 -17 54 -13 7 4 9 3 5 -4 -3 -6 -2 -13 4
-17 5 -3 10 0 10 7 0 7 7 3 15 -9 8 -12 38 -38 67 -59 28 -21 63 -49 77 -62
14 -12 39 -30 57 -38 33 -16 114 -91 114 -106 0 -4 5 -8 12 -8 14 0 78 -60 78
-73 0 -12 -29 10 -100 76 -34 32 -87 75 -118 95 -31 20 -63 43 -72 50 -8 7
-18 12 -22 13 -3 0 -27 20 -52 43 -38 36 -157 103 -256 144 -39 17 -7 14 41
-3z m-887 -10 c3 -8 1 -15 -4 -15 -6 0 -10 7 -10 15 0 8 2 15 4 15 2 0 6 -7
10 -15z m-89 -25 c3 -5 1 -10 -4 -10 -6 0 -11 5 -11 10 0 6 2 10 4 10 3 0 8
-4 11 -10z m1199 -24 c-3 -9 5 -20 23 -30 16 -9 21 -15 12 -16 -20 0 -61 38
-54 51 10 15 25 10 19 -5z m-99 -46 c8 -13 -5 -13 -25 0 -13 8 -13 10 2 10 9
0 20 -4 23 -10z m-1094 -37 c-8 -15 -10 -15 -11 -2 0 17 10 32 18 25 2 -3 -1
-13 -7 -23z m1269 12 c7 -8 16 -12 21 -9 5 3 9 1 9 -5 0 -6 6 -8 14 -5 8 3 23
0 33 -6 16 -10 16 -11 -4 -7 -25 6 -29 -3 -11 -21 13 -13 8 -15 -16 -6 -9 3
-16 12 -16 19 0 8 -9 16 -19 20 -22 7 -49 35 -33 35 5 0 15 -7 22 -15z m-115
-15 c3 -5 2 -10 -4 -10 -5 0 -13 5 -16 10 -3 6 -2 10 4 10 5 0 13 -4 16 -10z
m-1020 -34 c-15 -22 -35 -35 -35 -22 0 7 45 55 48 51 2 -2 -4 -15 -13 -29z
m-125 4 c0 -5 -7 -10 -15 -10 -8 0 -15 -5 -15 -12 0 -6 -2 -9 -5 -6 -3 3 -3
13 1 22 7 17 34 22 34 6z m1194 -16 c16 -6 12 -24 -5 -24 -6 0 -7 5 -3 12 5 8
0 9 -14 6 -12 -4 -20 -2 -16 3 6 11 16 11 38 3z m181 -14 c19 -8 19 -9 -2 -9
-12 -1 -25 4 -28 9 -7 12 2 12 30 0z m131 -22 l19 -21 -27 18 c-29 18 -34 25
-20 25 5 0 17 -10 28 -22z m-244 -16 c11 -13 10 -14 -9 -4 -12 7 -29 9 -37 6
-12 -4 -15 -2 -10 9 6 18 38 12 56 -11z m293 -22 c10 -11 16 -20 13 -20 -3 0
-13 9 -23 20 -10 11 -16 20 -13 20 3 0 13 -9 23 -20z m-239 -17 c-3 -3 -12 -1
-19 5 -8 7 -18 8 -22 4 -5 -4 -5 -1 -1 6 5 9 12 9 27 1 12 -6 18 -13 15 -16z
m-1096 -14 c0 -6 -4 -7 -10 -4 -5 3 -10 11 -10 16 0 6 5 7 10 4 6 -3 10 -11
10 -16z m1125 1 c3 -5 1 -10 -4 -10 -6 0 -11 5 -11 10 0 6 2 10 4 10 3 0 8 -4
11 -10z m30 -20 c3 -5 -1 -10 -10 -10 -9 0 -13 5 -10 10 3 6 8 10 10 10 2 0 7
-4 10 -10z m-247 -25 c-3 -3 -9 2 -12 12 -6 14 -5 15 5 6 7 -7 10 -15 7 -18z
m-668 -5 c0 -5 -5 -10 -11 -10 -5 0 -7 5 -4 10 3 6 8 10 11 10 2 0 4 -4 4 -10z
m945 0 c3 -6 -1 -7 -9 -4 -18 7 -21 14 -7 14 6 0 13 -4 16 -10z m-320 -30 c10
-11 16 -20 13 -20 -3 0 -13 9 -23 20 -10 11 -16 20 -13 20 3 0 13 -9 23 -20z
m-605 -10 c-16 -10 -16 -10 50 -29 33 -10 33 -10 -10 -5 -25 4 -48 11 -52 17
-8 12 11 41 21 32 3 -3 -1 -10 -9 -15z m1022 -54 c3 2 5 -3 5 -11 0 -8 -4 -15
-9 -15 -4 0 -8 4 -8 8 0 14 -41 57 -52 54 -5 -1 -6 3 -2 9 5 9 16 3 35 -19 15
-17 29 -29 31 -26z m-1265 38 c-3 -3 -12 -4 -19 -1 -8 3 -5 6 6 6 11 1 17 -2
13 -5z m947 -10 c5 -14 4 -15 -9 -4 -17 14 -19 20 -6 20 5 0 12 -7 15 -16z
m161 -4 c3 -5 1 -10 -4 -10 -6 0 -11 5 -11 10 0 6 2 10 4 10 3 0 8 -4 11 -10z
m-898 -42 c-3 -8 -6 -5 -6 6 -1 11 2 17 5 13 3 -3 4 -12 1 -19z m938 2 c17
-11 24 -20 17 -20 -8 0 -25 9 -39 20 -33 26 -17 26 22 0z m-1125 0 c0 -5 -2
-10 -4 -10 -3 0 -8 5 -11 10 -3 6 -1 10 4 10 6 0 11 -4 11 -10z m1423 -99 c-7
-9 -63 81 -63 102 0 6 15 -13 33 -43 19 -30 32 -57 30 -59z m-2076 57 c-3 -8
-6 -5 -6 6 -1 11 2 17 5 13 3 -3 4 -12 1 -19z m1876 7 c-3 -9 -8 -14 -10 -11
-3 3 -2 9 2 15 9 16 15 13 8 -4z m180 -78 c4 3 7 1 7 -5 0 -7 8 -12 18 -13 9
0 12 -3 5 -5 -14 -6 -118 43 -136 64 -6 8 13 1 44 -17 31 -17 59 -28 62 -24z
m-1402 -40 c-10 -9 -11 -8 -5 6 3 10 9 15 12 12 3 -3 0 -11 -7 -18z m-636 -7
c3 -6 -1 -7 -9 -4 -18 7 -21 14 -7 14 6 0 13 -4 16 -10z m10 -228 c-8 -8 -25
10 -19 20 4 6 9 5 15 -3 4 -7 6 -15 4 -17z m49 -58 c3 -8 2 -12 -4 -9 -6 3
-10 10 -10 16 0 14 7 11 14 -7z"/>
<path d="M6100 8759 c-25 -7 -25 -7 -2 -8 13 -1 20 -5 17 -11 -3 -5 -2 -10 4
-10 14 0 25 20 15 29 -5 5 -20 5 -34 0z"/>
<path d="M6025 8735 c-33 -11 -35 -14 -14 -14 14 -1 34 6 45 14 22 17 21 17
-31 0z"/>
<path d="M5634 8645 c-10 -8 -14 -14 -9 -14 6 0 19 6 29 14 11 8 15 15 10 15
-6 0 -19 -7 -30 -15z"/>
<path d="M5981 8621 c-15 -10 -12 -42 5 -48 15 -5 26 25 16 42 -4 9 -12 11
-21 6z"/>
<path d="M6635 8620 c3 -5 8 -10 11 -10 2 0 4 5 4 10 0 6 -5 10 -11 10 -5 0
-7 -4 -4 -10z"/>
<path d="M5881 8610 c-17 -10 -7 -40 14 -40 8 0 15 9 15 19 0 24 -12 32 -29
21z"/>
<path d="M6164 8606 c-4 -10 -2 -22 4 -28 8 -8 13 -7 18 6 4 10 2 22 -4 28 -8
8 -13 7 -18 -6z"/>
<path d="M5680 8600 c-13 -8 -13 -11 2 -26 16 -17 18 -17 24 0 9 23 -7 38 -26
26z"/>
<path d="M5782 8593 c2 -10 10 -18 18 -18 22 0 18 29 -3 33 -14 3 -18 -1 -15
-15z"/>
<path d="M5175 8571 c11 -5 14 -10 8 -10 -7 -1 -13 -13 -13 -27 0 -22 2 -24
15 -14 20 16 13 54 -11 57 -18 3 -17 2 1 -6z"/>
<path d="M5410 8550 c0 -22 7 -25 29 -11 16 10 6 31 -15 31 -8 0 -14 -9 -14
-20z"/>
<path d="M5520 8539 c0 -27 2 -29 15 -15 8 8 12 22 9 30 -10 27 -24 18 -24
-15z"/>
<path d="M5622 8549 c4 -26 23 -36 31 -16 3 7 -4 19 -15 26 -17 11 -19 10 -16
-10z"/>
<path d="M5837 8563 c-4 -3 -7 -15 -7 -25 0 -21 25 -24 33 -4 6 16 -16 40 -26
29z"/>
<path d="M5923 8554 c-8 -20 8 -36 26 -25 15 10 8 41 -9 41 -6 0 -13 -7 -17
-16z"/>
<path d="M6016 8562 c-8 -13 10 -35 24 -30 21 7 21 38 0 38 -10 0 -21 -4 -24
-8z"/>
<path d="M6211 8557 c-9 -12 -8 -16 3 -20 19 -7 32 11 19 24 -6 6 -14 5 -22
-4z"/>
<path d="M5091 8551 c-11 -7 -9 -11 9 -21 20 -11 22 -10 17 3 -3 9 -1 18 6 21
8 3 6 5 -3 5 -8 0 -21 -3 -29 -8z"/>
<path d="M5736 8552 c-2 -4 -1 -14 4 -22 7 -11 12 -12 21 -3 6 6 8 16 5 22 -8
13 -23 14 -30 3z"/>
<path d="M5370 8540 c0 -5 5 -10 10 -10 6 0 10 5 10 10 0 6 -4 10 -10 10 -5 0
-10 -4 -10 -10z"/>
<path d="M5570 8508 c-7 -16 -18 -28 -25 -28 -6 0 -29 -18 -50 -40 -42 -43
-58 -50 -53 -22 2 10 -2 16 -10 14 -8 -1 -11 2 -6 9 5 9 2 10 -10 6 -10 -4
-20 -7 -22 -7 -14 0 0 -22 19 -30 18 -7 13 -9 -25 -9 -42 -1 -48 2 -48 19 0
11 -7 20 -15 20 -19 0 -19 -14 1 -34 8 -9 13 -20 10 -25 -3 -5 5 -20 19 -35
14 -15 29 -35 35 -45 5 -10 19 -21 30 -24 16 -4 20 0 20 18 0 27 42 104 70
130 17 16 37 18 157 16 l138 -2 17 30 c9 16 14 32 10 35 -10 11 -41 6 -49 -8
-4 -7 -18 -18 -30 -25 -25 -13 -151 -15 -171 -3 -7 5 15 6 48 4 32 -2 71 -1
85 2 l25 7 -26 24 c-34 31 -35 31 -30 -1 5 -25 3 -26 -26 -20 -17 3 -37 6 -45
6 -7 0 -17 10 -22 23 -9 22 -9 22 -21 -5z m-146 -139 c18 15 22 1 5 -16 -15
-15 -39 -5 -39 16 0 13 2 14 9 2 8 -12 12 -12 25 -2z"/>
<path d="M5970 8511 c0 -11 4 -22 8 -25 14 -9 35 12 29 28 -9 23 -37 20 -37
-3z"/>
<path d="M6066 8515 c-6 -18 29 -41 39 -25 10 16 -2 40 -19 40 -7 0 -16 -7
-20 -15z"/>
<path d="M6247 8516 c-6 -15 19 -30 34 -20 5 3 9 12 9 20 0 18 -36 18 -43 0z"/>
<path d="M5320 8500 c0 -11 5 -20 10 -20 6 0 10 9 10 20 0 11 -4 20 -10 20 -5
0 -10 -9 -10 -20z"/>
<path d="M5392 8508 c6 -18 28 -21 28 -4 0 9 -7 16 -16 16 -9 0 -14 -5 -12
-12z"/>
<path d="M5470 8505 c0 -8 5 -15 10 -15 6 0 10 7 10 15 0 8 -4 15 -10 15 -5 0
-10 -7 -10 -15z"/>
<path d="M5874 8505 c-8 -20 4 -35 27 -35 21 0 25 20 7 38 -16 16 -27 15 -34
-3z"/>
<path d="M5136 8491 c-3 -5 6 -8 20 -8 19 0 22 2 13 8 -18 11 -26 11 -33 0z"/>
<path d="M6303 8493 c-20 -7 -15 -23 7 -23 11 0 20 4 20 9 0 13 -12 19 -27 14z"/>
<path d="M5842 8478 c-20 -20 -13 -38 13 -38 28 0 30 7 11 32 -10 13 -15 15
-24 6z"/>
<path d="M6031 8481 c-17 -11 -7 -41 13 -41 21 0 27 15 13 33 -8 11 -17 14
-26 8z"/>
<path d="M5360 8459 c0 -24 23 -21 28 4 2 10 -3 17 -12 17 -10 0 -16 -9 -16
-21z"/>
<path d="M5924 8465 c-12 -31 23 -48 45 -21 10 12 8 17 -8 25 -26 14 -31 14
-37 -4z"/>
<path d="M4974 8462 c-15 -9 -30 -57 -16 -48 6 4 8 -2 5 -14 -3 -11 -1 -20 5
-20 5 0 12 20 14 45 2 25 3 45 3 45 0 0 -5 -4 -11 -8z"/>
<path d="M5444 8452 c15 -17 22 -19 33 -11 18 15 16 22 -3 15 -9 -4 -24 -1
-33 6 -10 8 -9 5 3 -10z"/>
<path d="M6243 8449 c-17 -17 -4 -39 21 -39 30 0 37 9 25 31 -11 21 -30 24
-46 8z"/>
<path d="M5000 8440 c0 -5 5 -10 11 -10 5 0 7 5 4 10 -3 6 -8 10 -11 10 -2 0
-4 -4 -4 -10z"/>
<path d="M5106 8441 c-4 -7 -5 -15 -2 -18 9 -9 19 4 14 18 -4 11 -6 11 -12 0z"/>
<path d="M5982 8427 c-15 -17 1 -42 23 -33 18 6 17 37 -1 43 -6 2 -16 -2 -22
-10z"/>
<path d="M5582 8414 c4 -21 22 -23 26 -1 2 10 -3 17 -13 17 -10 0 -15 -6 -13
-16z"/>
<path d="M5670 8416 c0 -6 4 -17 8 -24 7 -9 13 -8 27 8 10 11 16 21 14 21 -21
7 -49 4 -49 -5z"/>
<path d="M5793 8419 c-9 -9 -8 -15 0 -24 14 -15 37 -1 37 21 0 17 -22 18 -37
3z"/>
<path d="M5880 8415 c0 -21 28 -31 43 -16 9 9 8 14 -3 21 -22 14 -40 12 -40
-5z"/>
<path d="M5060 8390 c0 -11 4 -20 9 -20 5 0 7 9 4 20 -3 11 -7 20 -9 20 -2 0
-4 -9 -4 -20z"/>
<path d="M5934 8386 c-6 -17 11 -46 28 -46 14 0 5 53 -9 58 -7 2 -16 -4 -19
-12z"/>
<path d="M6024 8385 c-7 -18 3 -35 21 -35 18 0 26 15 19 34 -8 20 -33 21 -40
1z"/>
<path d="M5530 8376 c0 -15 18 -31 26 -23 7 7 -7 37 -17 37 -5 0 -9 -6 -9 -14z"/>
<path d="M5627 8384 c-14 -15 -6 -34 14 -34 14 0 19 5 17 17 -3 18 -20 27 -31
17z"/>
<path d="M5724 8379 c-3 -6 -2 -15 3 -20 12 -12 53 1 53 17 0 17 -46 19 -56 3z"/>
<path d="M5840 8376 c0 -10 9 -16 21 -16 24 0 21 23 -4 28 -10 2 -17 -3 -17
-12z"/>
<path d="M4996 8355 c-3 -9 0 -28 8 -42 l13 -26 5 32 c5 35 -15 63 -26 36z"/>
<path d="M5185 8350 c-3 -6 1 -17 9 -26 15 -14 16 -13 16 10 0 26 -13 35 -25
16z"/>
<path d="M5982 8333 c2 -20 9 -28 22 -28 26 0 31 19 11 39 -24 24 -37 19 -33
-11z"/>
<path d="M6445 8350 c-3 -5 -1 -10 4 -10 6 0 11 5 11 10 0 6 -2 10 -4 10 -3 0
-8 -4 -11 -10z"/>
<path d="M5100 8335 c0 -9 5 -15 11 -13 6 2 11 8 11 13 0 5 -5 11 -11 13 -6 2
-11 -4 -11 -13z"/>
<path d="M5578 8339 c-21 -12 -13 -39 12 -39 25 0 32 14 17 33 -9 12 -17 14
-29 6z"/>
<path d="M5670 8341 c0 -5 -3 -17 -7 -27 -6 -15 -2 -16 32 -11 37 6 38 6 16
-9 -17 -13 -20 -19 -10 -30 17 -21 39 -17 65 11 13 14 27 25 33 25 15 0 42 31
36 41 -10 15 -45 10 -45 -6 0 -10 -10 -15 -34 -15 -19 0 -41 7 -50 15 -16 17
-36 20 -36 6z"/>
<path d="M5884 8339 c-3 -6 1 -18 10 -27 14 -14 18 -15 25 -3 5 8 7 20 4 28
-6 16 -29 17 -39 2z"/>
<path d="M6077 8336 c-7 -18 14 -67 28 -63 17 6 12 71 -6 75 -9 2 -19 -4 -22
-12z"/>
<path d="M5490 8320 c0 -13 5 -18 15 -14 8 4 15 12 15 20 0 8 -7 14 -15 14 -8
0 -15 -9 -15 -20z"/>
<path d="M5054 8306 c-6 -17 2 -36 17 -36 12 0 12 37 -1 45 -6 3 -13 -1 -16
-9z"/>
<path d="M5836 8304 c-8 -21 1 -34 25 -34 21 0 25 20 7 38 -16 16 -25 15 -32
-4z"/>
<path d="M5147 8303 c-12 -11 -8 -31 7 -36 8 -3 17 0 20 8 5 15 -17 39 -27 28z"/>
<path d="M5935 8300 c-3 -5 -4 -19 0 -30 8 -25 37 -14 33 13 -3 23 -23 33 -33
17z"/>
<path d="M6482 8298 c6 -18 28 -21 28 -4 0 9 -7 16 -16 16 -9 0 -14 -5 -12
-12z"/>
<path d="M5523 8281 c-4 -16 -10 -18 -36 -10 -36 10 -41 7 -32 -20 6 -21 50
-30 57 -13 2 5 15 12 29 15 22 6 25 3 25 -16 -1 -16 5 -22 19 -22 16 0 20 6
18 35 0 19 1 28 4 18 7 -28 35 -31 55 -6 17 22 16 23 -3 32 -14 7 -30 4 -54
-7 -29 -14 -35 -14 -45 -1 -17 19 -31 18 -37 -5z"/>
<path d="M5282 8268 c-15 -15 4 -49 23 -42 19 8 20 40 1 47 -7 3 -18 1 -24 -5z"/>
<path d="M6436 8272 c-7 -12 3 -42 14 -42 18 0 22 22 7 37 -9 9 -17 11 -21 5z"/>
<path d="M5370 8250 c0 -23 25 -27 33 -6 7 16 -1 26 -20 26 -7 0 -13 -9 -13
-20z"/>
<path d="M5785 8260 c-9 -15 3 -30 25 -30 18 0 34 23 23 34 -10 10 -41 7 -48
-4z"/>
<path d="M5090 8241 c0 -15 6 -21 21 -21 14 0 19 5 17 17 -5 26 -38 29 -38 4z"/>
<path d="M6559 8235 c-13 -13 -30 -25 -37 -25 -7 0 -11 -4 -8 -9 3 -4 -4 -17
-15 -27 -19 -17 -21 -18 -30 -1 -6 9 -14 17 -19 17 -13 0 -13 -33 1 -47 8 -8
7 -13 -2 -18 -7 -5 -19 2 -30 16 -15 20 -21 21 -28 10 -6 -9 -4 -22 6 -37 14
-22 4 -28 -22 -12 -13 7 -52 4 -62 -6 -5 -4 -2 -6 6 -4 7 2 16 -3 19 -11 2 -8
1 -12 -4 -9 -5 3 -17 -3 -26 -14 -13 -13 -14 -18 -4 -18 21 0 76 21 76 30 0 4
10 10 23 14 29 7 205 176 184 176 -3 0 -15 -11 -28 -25z"/>
<path d="M5663 8234 c-6 -16 11 -34 33 -34 14 0 14 33 0 42 -17 12 -26 9 -33
-8z"/>
<path d="M5422 8228 c-18 -18 -14 -38 8 -38 13 0 20 7 20 19 0 25 -13 34 -28
19z"/>
<path d="M5743 8233 c-21 -8 -15 -30 9 -36 30 -8 40 1 28 24 -11 19 -16 21
-37 12z"/>
<path d="M5507 8223 c-14 -13 -7 -30 17 -43 14 -7 27 -23 30 -36 8 -30 36 -32
36 -3 0 12 -8 23 -19 26 -11 3 -21 17 -25 34 -5 27 -24 38 -39 22z"/>
<path d="M6482 8213 c4 -24 23 -27 25 -3 1 12 -4 20 -13 20 -9 0 -14 -7 -12
-17z"/>
<path d="M5607 8196 c-3 -8 1 -20 9 -27 12 -10 18 -9 31 3 8 9 12 21 9 27 -10
16 -43 14 -49 -3z"/>
<path d="M5370 8165 c0 -16 6 -25 15 -25 8 0 15 9 15 19 0 10 -7 21 -15 25
-11 4 -15 -1 -15 -19z"/>
<path d="M5450 8159 c0 -14 5 -19 17 -17 26 5 29 38 4 38 -15 0 -21 -6 -21
-21z"/>
<path d="M5657 8147 c-3 -8 -2 -20 3 -27 11 -18 42 -4 38 17 -4 22 -34 29 -41
10z"/>
<path d="M5400 8110 c0 -16 5 -21 23 -18 12 2 22 10 22 18 0 8 -10 16 -22 18
-18 3 -23 -2 -23 -18z"/>
<path d="M5497 8124 c-16 -16 -6 -34 19 -34 19 0 25 5 22 17 -3 19 -29 29 -41
17z"/>
<path d="M5123 8094 c-8 -21 13 -42 28 -27 13 13 5 43 -11 43 -6 0 -13 -7 -17
-16z"/>
<path d="M5704 8095 c-7 -18 3 -35 21 -35 21 0 28 19 15 35 -16 19 -29 19 -36
0z"/>
<path d="M5440 8061 c0 -24 25 -34 40 -16 15 18 5 35 -21 35 -12 0 -19 -7 -19
-19z"/>
<path d="M5537 8066 c-3 -8 1 -20 9 -27 12 -10 18 -9 31 3 8 9 12 21 9 27 -10
16 -43 14 -49 -3z"/>
<path d="M5167 8053 c-10 -9 -9 -53 1 -53 14 0 32 23 32 42 0 18 -20 25 -33
11z"/>
<path d="M5486 8034 c-8 -20 -8 -19 21 -28 26 -8 39 9 23 29 -16 20 -36 19
-44 -1z"/>
<path d="M5213 8023 c-17 -6 -16 -48 1 -62 14 -11 24 1 32 36 3 16 -17 32 -33
26z"/>
<path d="M5443 7989 c-15 -15 -5 -39 17 -39 19 0 34 25 24 41 -7 12 -28 11
-41 -2z"/>
<path d="M5533 7984 c-6 -16 12 -34 35 -34 19 0 27 31 11 41 -21 13 -39 11
-46 -7z"/>
<path d="M5403 7943 c-7 -3 -13 -14 -13 -25 0 -14 6 -19 22 -16 13 2 24 10 26
19 3 18 -15 29 -35 22z"/>
<path d="M5490 7931 c0 -19 23 -35 34 -24 14 15 5 43 -14 43 -13 0 -20 -7 -20
-19z"/>
<path d="M5590 7931 c0 -20 27 -48 37 -37 3 3 0 6 -8 6 -10 1 -9 4 4 11 14 8
16 14 6 25 -16 20 -39 17 -39 -5z"/>
<path d="M5535 7900 c-9 -15 3 -30 24 -30 25 0 33 11 20 27 -13 15 -35 17 -44
3z"/>
<path d="M5157 7883 c-13 -12 -7 -43 8 -43 16 0 38 34 28 44 -8 8 -28 8 -36
-1z"/>
<path d="M5244 7875 c-4 -9 -2 -21 4 -27 15 -15 44 -1 40 19 -4 23 -36 29 -44
8z"/>
<path d="M5207 7833 c-10 -10 -8 -43 2 -43 5 0 16 -2 24 -5 10 -5 13 1 9 25
-4 28 -20 39 -35 23z"/>
<path d="M6287 8306 c-3 -8 1 -20 8 -26 12 -10 16 -8 21 6 4 11 9 22 11 27 2
4 -5 7 -15 7 -11 0 -22 -6 -25 -14z"/>
<path d="M6246 8261 c-4 -5 -3 -16 0 -25 6 -15 8 -15 20 1 7 10 14 21 14 26 0
10 -28 9 -34 -2z"/>
<path d="M6275 8223 c-9 -15 -32 -39 -50 -53 -18 -14 -32 -27 -30 -29 6 -6 93
69 99 86 11 28 -1 25 -19 -4z"/>
<path d="M6195 8230 c-4 -6 -1 -18 6 -26 14 -17 31 0 22 23 -6 16 -19 17 -28
3z"/>
<path d="M6106 8215 c-11 -8 -15 -15 -9 -15 6 0 16 7 23 15 16 19 11 19 -14 0z"/>
<path d="M6040 8190 c-8 -5 -25 -10 -38 -10 -18 0 -23 -5 -20 -22 3 -26 43
-33 43 -8 0 10 10 15 27 15 31 1 43 9 33 24 -8 14 -25 14 -45 1z"/>
<path d="M6144 8187 c-3 -9 3 -24 14 -35 20 -20 20 -20 19 11 -2 33 -23 48
-33 24z"/>
<path d="M5931 8116 c-10 -12 -8 -17 7 -25 15 -8 23 -7 32 4 13 16 6 35 -14
35 -8 0 -19 -6 -25 -14z"/>
<path d="M5217 8192 c-21 -23 -13 -52 14 -52 20 0 24 20 10 53 -6 18 -7 17
-24 -1z"/>
<path d="M6936 7954 c-18 -17 -22 -54 -6 -54 6 0 10 8 10 18 0 26 11 34 28 19
13 -10 14 -9 3 11 -14 26 -15 26 -35 6z"/>
<path d="M6535 7910 c-10 -11 -24 -20 -32 -20 -7 0 -16 -7 -19 -15 -7 -18 -30
-20 -37 -2 -3 6 -4 -1 -3 -18 1 -23 7 -31 24 -33 12 -2 22 1 22 7 0 15 52 61
69 61 10 0 11 3 2 13 -6 8 -8 17 -4 20 3 4 4 7 1 7 -3 0 -13 -9 -23 -20z"/>
<path d="M6884 7885 c-4 -9 -2 -21 3 -26 7 -7 12 -3 16 10 6 25 -11 39 -19 16z"/>
<path d="M6185 7848 c-11 -7 -33 -13 -50 -15 -16 -1 -70 -16 -120 -33 -49 -17
-118 -40 -152 -51 -57 -18 -91 -39 -62 -39 6 0 17 -7 24 -17 17 -22 49 -10 42
17 -6 23 -3 24 23 8 16 -11 23 -9 40 10 11 12 25 22 30 22 6 0 10 6 10 13 0 7
13 13 30 13 17 1 30 -2 30 -7 0 -19 42 -9 47 11 4 14 11 19 23 15 9 -3 23 1
30 10 16 20 39 19 62 -2 18 -16 21 -16 56 2 53 27 58 29 50 20 -10 -11 10 -45
27 -45 8 0 18 6 22 13 4 7 20 20 36 30 15 10 27 22 27 27 0 14 -74 12 -89 -2
-11 -10 -13 -10 -7 0 10 16 -101 16 -129 0z"/>
<path d="M6145 7796 c-16 -12 -16 -13 0 -30 13 -13 20 -14 31 -5 31 26 2 59
-31 35z"/>
<path d="M6925 7789 c-4 -6 -5 -12 -2 -15 2 -3 7 2 10 11 7 17 1 20 -8 4z"/>
<path d="M6780 7780 c-13 -8 -12 -10 3 -10 9 0 17 5 17 10 0 12 -1 12 -20 0z"/>
<path d="M6680 7765 c-19 -7 -48 -16 -63 -20 -30 -6 -32 -22 -5 -38 11 -8 21
-5 39 11 12 12 27 22 31 22 5 0 6 5 3 10 -3 6 3 10 14 10 11 0 23 5 26 10 8
13 -2 12 -45 -5z"/>
<path d="M5977 7746 c-9 -22 19 -42 37 -26 19 15 10 40 -14 40 -10 0 -20 -6
-23 -14z"/>
<path d="M6720 7731 c0 -12 6 -21 16 -21 9 0 14 7 12 17 -5 25 -28 28 -28 4z"/>
<path d="M5743 7722 c-15 -2 -23 -10 -23 -23 0 -26 37 -25 45 2 8 24 7 26 -22
21z"/>
<path d="M5216 7712 c-3 -5 1 -9 9 -9 8 0 12 4 9 9 -3 4 -7 8 -9 8 -2 0 -6 -4
-9 -8z"/>
<path d="M5264 7709 c-7 -12 15 -31 28 -23 4 3 8 12 8 20 0 17 -26 19 -36 3z"/>
<path d="M5357 7713 c-3 -5 -2 -15 3 -22 10 -17 43 -6 38 12 -6 15 -34 22 -41
10z"/>
<path d="M5450 7700 c0 -24 35 -28 44 -4 9 23 8 24 -19 24 -18 0 -25 -5 -25
-20z"/>
<path d="M5544 7709 c-11 -18 13 -34 31 -19 8 7 15 16 15 21 0 13 -38 11 -46
-2z"/>
<path d="M5630 7700 c11 -21 40 -17 40 6 0 8 -10 14 -25 14 -22 0 -24 -3 -15
-20z"/>
<path d="M5933 7704 c-8 -21 13 -42 28 -27 13 13 5 43 -11 43 -6 0 -13 -7 -17
-16z"/>
<path d="M6033 7704 c-8 -22 11 -37 36 -29 17 5 19 10 11 26 -13 23 -38 25
-47 3z"/>
<path d="M6675 7701 c-8 -15 3 -31 21 -31 9 0 14 7 12 17 -4 20 -24 28 -33 14z"/>
<path d="M6836 7695 c-11 -8 -15 -15 -9 -15 6 0 16 7 23 15 16 19 11 19 -14 0z"/>
<path d="M5688 7689 c-24 -13 -23 -25 2 -32 16 -4 20 0 20 19 0 27 1 27 -22
13z"/>
<path d="M5220 7670 c0 -11 6 -20 14 -20 20 0 28 27 10 34 -23 9 -24 8 -24
-14z"/>
<path d="M5781 7681 c-15 -10 -8 -41 9 -41 15 0 25 29 14 40 -5 5 -15 5 -23 1z"/>
<path d="M6245 7680 c-11 -5 -28 -11 -38 -14 -16 -5 -17 -8 -2 -36 20 -39 34
-38 31 1 -2 27 0 30 20 25 19 -5 54 14 54 30 0 7 -44 3 -65 -6z"/>
<path d="M6556 7682 c-2 -4 -1 -14 4 -22 7 -11 11 -11 24 -1 9 7 13 17 10 22
-7 11 -31 12 -38 1z"/>
<path d="M5513 7673 c-15 -5 -17 -29 -4 -37 12 -8 31 17 23 30 -4 6 -13 9 -19
7z"/>
<path d="M5586 7672 c-2 -4 -1 -14 4 -21 10 -17 31 -5 23 14 -6 16 -19 20 -27
7z"/>
<path d="M5310 7656 c0 -8 4 -17 8 -20 13 -8 35 11 28 23 -10 16 -36 14 -36
-3z"/>
<path d="M5405 7660 c-4 -7 -3 -16 3 -22 14 -14 45 -2 40 15 -6 16 -34 21 -43
7z"/>
<path d="M5874 7659 c-12 -19 12 -32 36 -19 18 10 20 14 9 21 -19 12 -36 11
-45 -2z"/>
<path d="M6634 7648 c0 -12 8 -23 16 -25 12 -4 12 -3 1 5 -11 8 -11 10 0 14 7
2 9 10 5 16 -12 19 -23 14 -22 -10z"/>
<path d="M5153 7642 c-15 -9 63 -39 112 -44 24 -2 30 1 30 17 0 11 -8 21 -17
23 -11 2 -18 -3 -18 -12 0 -9 -4 -16 -10 -16 -5 0 -10 5 -10 11 0 6 -9 8 -20
4 -14 -4 -20 -2 -18 7 3 15 -31 22 -49 10z"/>
<path d="M6502 7638 c-8 -8 -8 -15 -1 -24 12 -14 96 -9 113 7 5 5 -6 6 -25 3
-25 -4 -39 -1 -48 10 -16 19 -23 20 -39 4z"/>
<path d="M5551 7626 c-7 -8 -8 -17 -3 -20 6 -3 15 1 21 8 7 8 8 17 3 20 -6 3
-15 -1 -21 -8z"/>
<path d="M5634 7629 c-10 -17 13 -36 27 -22 12 12 4 33 -11 33 -5 0 -12 -5
-16 -11z"/>
<path d="M5720 7620 c0 -11 6 -20 13 -20 19 0 27 10 20 26 -8 21 -33 17 -33
-6z"/>
<path d="M5920 7625 c-8 -9 -8 -15 -2 -15 12 0 26 19 19 26 -2 2 -10 -2 -17
-11z"/>
<path d="M6688 7633 c7 -3 16 -2 19 1 4 3 -2 6 -13 5 -11 0 -14 -3 -6 -6z"/>
<path d="M5362 7613 c0 -10 -2 -25 -6 -34 -6 -13 3 -20 38 -31 43 -14 46 -14
52 4 3 11 2 24 -3 29 -11 11 -43 2 -43 -12 0 -5 -7 -9 -15 -9 -18 0 -16 21 4
36 16 12 7 34 -14 34 -8 0 -13 -8 -13 -17z"/>
<path d="M5467 7623 c-13 -12 -7 -23 13 -23 13 0 18 5 14 15 -7 16 -17 19 -27
8z"/>
<path d="M5814 7619 c-3 -6 -2 -15 4 -21 13 -13 32 -2 32 18 0 16 -26 19 -36
3z"/>
<path d="M6147 7614 c-16 -16 -6 -34 19 -34 19 0 25 5 22 17 -3 19 -29 29 -41
17z"/>
<path d="M5316 7592 c-3 -6 -1 -14 5 -17 15 -10 25 3 12 16 -7 7 -13 7 -17 1z"/>
<path d="M5586 7592 c-8 -13 11 -35 23 -28 6 4 11 11 11 16 0 11 -28 21 -34
12z"/>
<path d="M5507 7584 c-9 -9 4 -35 14 -28 5 3 9 12 9 20 0 14 -12 19 -23 8z"/>
<path d="M5670 7576 c0 -15 24 -28 34 -19 13 14 5 33 -14 33 -11 0 -20 -6 -20
-14z"/>
<path d="M5763 7574 c-8 -21 13 -42 28 -27 13 13 5 43 -11 43 -6 0 -13 -7 -17
-16z"/>
<path d="M6689 7573 c-13 -16 -12 -17 4 -4 12 9 17 10 17 2 0 -7 5 -9 10 -6 6
3 10 10 10 16 0 15 -27 10 -41 -8z"/>
<path d="M5544 7549 c-8 -14 11 -33 25 -25 6 4 11 11 11 16 0 13 -29 20 -36 9z"/>
<path d="M5918 7553 c7 -3 16 -2 19 1 4 3 -2 6 -13 5 -11 0 -14 -3 -6 -6z"/>
<path d="M6232 7549 c-18 -5 -30 -14 -27 -19 8 -13 35 -13 35 0 0 6 6 10 14
10 8 0 18 5 21 10 7 12 1 12 -43 -1z"/>
<path d="M6296 7552 c-9 -14 12 -35 28 -29 23 9 20 37 -3 37 -11 0 -22 -4 -25
-8z"/>
<path d="M6394 7549 c-3 -6 -1 -16 4 -21 13 -13 45 8 36 23 -7 12 -31 11 -40
-2z"/>
<path d="M6633 7543 c0 -18 23 -17 30 1 4 10 0 14 -12 13 -10 0 -18 -7 -18
-14z"/>
<path d="M5628 7544 c-11 -10 3 -34 19 -34 8 0 13 7 11 17 -3 18 -20 27 -30
17z"/>
<path d="M6701 7534 c0 -11 3 -14 6 -6 3 7 2 16 -1 19 -3 4 -6 -2 -5 -13z"/>
<path d="M5461 7531 c-10 -6 0 -16 39 -35 58 -29 60 -30 60 -17 0 5 -14 14
-30 20 -17 5 -29 16 -28 22 4 16 -22 22 -41 10z"/>
<path d="M5716 7531 c-8 -12 3 -41 16 -41 5 0 6 -4 3 -10 -3 -5 0 -7 8 -4 11
4 13 13 8 32 -8 27 -25 39 -35 23z"/>
<path d="M6037 7532 c-14 -3 -16 -7 -6 -18 15 -18 49 -18 49 0 0 16 -18 24
-43 18z"/>
<path d="M6587 7529 c7 -7 15 -10 18 -7 3 3 -2 9 -12 12 -14 6 -15 5 -6 -5z"/>
<path d="M5582 7497 c-9 -10 -8 -18 3 -33 13 -16 16 -17 25 -4 21 31 -5 65
-28 37z"/>
<path d="M6160 7496 c0 -9 7 -16 16 -16 9 0 14 5 12 12 -6 18 -28 21 -28 4z"/>
<path d="M6255 7501 c-8 -15 3 -31 21 -31 9 0 14 7 12 17 -4 20 -24 28 -33 14z"/>
<path d="M6350 7490 c0 -13 5 -20 13 -17 6 2 12 10 12 17 0 7 -6 15 -12 18 -8
2 -13 -5 -13 -18z"/>
<path d="M6674 7485 c-9 -37 0 -40 13 -5 6 17 7 30 2 30 -5 0 -11 -11 -15 -25z"/>
<path d="M5670 7483 c0 -11 5 -24 12 -31 19 -19 0 -27 -20 -9 -21 20 -42 22
-42 6 0 -16 31 -38 52 -39 30 0 39 78 11 88 -8 2 -13 -5 -13 -15z"/>
<path d="M5985 7490 c-8 -12 20 -24 35 -15 5 3 10 10 10 16 0 12 -37 12 -45
-1z"/>
<path d="M6440 7490 c0 -5 7 -10 15 -10 8 0 15 5 15 10 0 6 -7 10 -15 10 -8 0
-15 -4 -15 -10z"/>
<path d="M5852 7463 c5 -25 28 -28 28 -4 0 12 -6 21 -16 21 -9 0 -14 -7 -12
-17z"/>
<path d="M5940 7450 c0 -13 5 -20 13 -17 6 2 12 10 12 17 0 7 -6 15 -12 18 -8
2 -13 -5 -13 -18z"/>
<path d="M6130 7454 c0 -8 5 -12 10 -9 6 3 10 10 10 16 0 5 -4 9 -10 9 -5 0
-10 -7 -10 -16z"/>
<path d="M6207 7456 c-4 -10 2 -20 14 -27 18 -9 20 -8 17 12 -4 27 -23 36 -31
15z"/>
<path d="M6305 7460 c-4 -6 -3 -16 3 -22 6 -6 12 -6 17 2 4 6 3 16 -3 22 -6 6
-12 6 -17 -2z"/>
<path d="M6040 7445 c0 -8 9 -15 20 -15 24 0 27 15 4 24 -22 9 -24 8 -24 -9z"/>
<path d="M6396 7443 c5 -5 12 -12 16 -18 4 -6 8 -2 8 8 0 9 -7 17 -17 17 -9 0
-12 -3 -7 -7z"/>
<path d="M5814 7426 c-4 -9 -4 -20 0 -23 3 -4 12 -1 18 5 9 9 9 15 0 24 -9 9
-13 7 -18 -6z"/>
<path d="M5894 7419 c-7 -12 15 -31 28 -23 9 6 -1 34 -12 34 -5 0 -12 -5 -16
-11z"/>
<path d="M6652 7405 c-7 -14 -12 -31 -12 -38 1 -7 7 3 16 22 17 39 13 54 -4
16z"/>
<path d="M5990 7405 c0 -10 7 -15 18 -13 21 4 19 22 -2 26 -10 2 -16 -3 -16
-13z"/>
<path d="M6090 7410 c0 -5 5 -10 11 -10 5 0 7 5 4 10 -3 6 -8 10 -11 10 -2 0
-4 -4 -4 -10z"/>
<path d="M6160 7399 c0 -18 2 -19 15 -9 15 12 12 30 -6 30 -5 0 -9 -10 -9 -21z"/>
<path d="M6265 7410 c-7 -12 2 -30 16 -30 5 0 9 9 9 20 0 21 -15 27 -25 10z"/>
<path d="M5754 7388 c-9 -15 27 -41 39 -29 13 13 1 41 -17 41 -8 0 -18 -5 -22
-12z"/>
<path d="M6344 7386 c-4 -9 -4 -20 0 -23 3 -4 12 -1 18 5 9 9 9 15 0 24 -9 9
-13 7 -18 -6z"/>
<path d="M5855 7380 c-7 -12 2 -30 16 -30 5 0 9 9 9 20 0 21 -15 27 -25 10z"/>
<path d="M5945 7380 c-4 -6 -3 -16 3 -22 6 -6 12 -6 17 2 4 6 3 16 -3 22 -6 6
-12 6 -17 -2z"/>
<path d="M6047 7383 c-12 -11 -8 -23 8 -23 8 0 15 7 15 15 0 16 -12 20 -23 8z"/>
<path d="M6216 7362 c-2 -4 0 -14 5 -22 8 -13 10 -13 18 0 10 15 6 30 -9 30
-5 0 -11 -4 -14 -8z"/>
<path d="M5903 7343 c-18 -6 -16 -30 3 -37 19 -7 34 1 34 19 0 15 -19 24 -37
18z"/>
<path d="M5997 7334 c-9 -10 2 -24 19 -24 8 0 14 7 14 15 0 15 -21 21 -33 9z"/>
<path d="M6130 7325 c0 -8 7 -15 15 -15 8 0 15 7 15 15 0 8 -7 15 -15 15 -8 0
-15 -7 -15 -15z"/>
<path d="M6293 7325 c-3 -9 -3 -18 0 -21 9 -9 27 6 27 22 0 19 -19 18 -27 -1z"/>
<path d="M6376 7325 c-3 -9 0 -15 9 -15 8 0 15 7 15 15 0 8 -4 15 -9 15 -5 0
-11 -7 -15 -15z"/>
<path d="M5239 7294 c-8 -10 -9 -15 -3 -11 6 3 25 2 42 -3 18 -4 34 -5 37 0 3
4 -3 10 -13 13 -9 2 -24 8 -33 11 -9 4 -21 0 -30 -10z"/>
<path d="M6187 7303 c-12 -11 -8 -23 8 -23 8 0 15 7 15 15 0 16 -12 20 -23 8z"/>
<path d="M5954 7288 c-6 -10 20 -38 36 -38 11 0 8 35 -4 42 -16 11 -24 10 -32
-4z"/>
<path d="M6082 7278 c5 -15 28 -18 29 -3 0 6 -7 12 -17 13 -10 3 -15 -1 -12
-10z"/>
<path d="M6331 7276 c-9 -10 -9 -16 -1 -21 17 -10 37 12 24 25 -8 8 -15 6 -23
-4z"/>
<path d="M6430 7270 c0 -5 5 -10 10 -10 6 0 10 5 10 10 0 6 -4 10 -10 10 -5 0
-10 -4 -10 -10z"/>
<path d="M5320 7256 c0 -22 19 -29 36 -15 12 10 12 14 2 20 -20 13 -38 10 -38
-5z"/>
<path d="M6233 7255 c0 -18 19 -15 25 3 2 7 -3 12 -10 12 -8 0 -15 -7 -15 -15z"/>
<path d="M5230 7245 c0 -9 5 -15 11 -13 6 2 11 8 11 13 0 5 -5 11 -11 13 -6 2
-11 -4 -11 -13z"/>
<path d="M6027 7254 c-16 -16 -6 -34 19 -34 19 0 25 5 22 17 -3 19 -29 29 -41
17z"/>
<path d="M6137 7253 c-12 -11 -8 -23 8 -23 8 0 15 7 15 15 0 16 -12 20 -23 8z"/>
<path d="M6614 7226 c-3 -21 -4 -39 -1 -42 2 -3 8 11 11 32 4 20 5 38 2 41 -2
3 -8 -11 -12 -31z"/>
<path d="M5391 7241 c-18 -12 -6 -42 14 -35 8 3 15 15 15 25 0 21 -8 23 -29
10z"/>
<path d="M5066 7205 c-4 -20 -3 -42 3 -48 5 -7 11 -25 14 -42 2 -19 5 -11 6
23 0 33 -3 51 -9 47 -14 -9 -13 8 2 23 9 9 9 15 1 23 -7 7 -12 0 -17 -26z"/>
<path d="M5485 7230 c-7 -11 2 -30 15 -30 4 0 10 6 13 14 6 16 -19 30 -28 16z"/>
<path d="M5565 7230 c-4 -7 -3 -16 3 -22 14 -14 45 -2 40 15 -6 16 -34 21 -43
7z"/>
<path d="M6279 7229 c-10 -6 -11 -11 -3 -19 11 -11 44 -4 44 10 0 13 -26 19
-41 9z"/>
<path d="M6380 7230 c-12 -7 -12 -12 -2 -22 9 -9 15 -9 24 0 8 8 9 15 2 22 -5
5 -15 6 -24 0z"/>
<path d="M6186 7221 c-4 -7 -5 -15 -2 -18 9 -9 19 4 14 18 -4 11 -6 11 -12 0z"/>
<path d="M5114 7209 c-3 -6 0 -17 8 -25 13 -13 16 -13 27 0 10 12 9 14 -10 9
-18 -5 -21 -3 -16 10 7 19 2 23 -9 6z"/>
<path d="M5280 7210 c0 -5 4 -10 9 -10 6 0 13 5 16 10 3 6 -1 10 -9 10 -9 0
-16 -4 -16 -10z"/>
<path d="M6090 7200 c-11 -7 -12 -12 -3 -21 15 -15 43 -5 43 16 0 17 -18 19
-40 5z"/>
<path d="M5437 7194 c-9 -10 2 -24 19 -24 8 0 14 7 14 15 0 15 -21 21 -33 9z"/>
<path d="M5335 7180 c-3 -5 1 -10 9 -10 9 0 16 5 16 10 0 6 -4 10 -9 10 -6 0
-13 -4 -16 -10z"/>
<path d="M5526 7181 c-3 -5 1 -14 8 -20 16 -13 32 2 21 19 -8 12 -22 13 -29 1z"/>
<path d="M5615 7181 c-8 -15 3 -31 21 -31 9 0 14 7 12 17 -4 20 -24 28 -33 14z"/>
<path d="M6216 7181 c-8 -12 21 -34 34 -26 17 11 11 35 -9 35 -11 0 -22 -4
-25 -9z"/>
<path d="M6320 7175 c0 -10 7 -15 18 -13 21 4 19 22 -2 26 -10 2 -16 -3 -16
-13z"/>
<path d="M6608 7147 c-3 -19 -2 -25 4 -19 6 6 8 18 6 28 -3 14 -5 12 -10 -9z"/>
<path d="M5395 7150 c-8 -13 3 -30 21 -30 18 0 18 14 0 29 -10 8 -16 9 -21 1z"/>
<path d="M5484 7146 c-4 -10 -2 -22 4 -28 8 -8 13 -7 18 6 4 10 2 22 -4 28 -8
8 -13 7 -18 -6z"/>
<path d="M5160 7136 c0 -8 5 -18 10 -21 6 -3 10 3 10 14 0 12 -4 21 -10 21 -5
0 -10 -6 -10 -14z"/>
<path d="M5574 7139 c-10 -17 13 -36 27 -22 12 12 4 33 -11 33 -5 0 -12 -5
-16 -11z"/>
<path d="M6167 7144 c-9 -10 12 -34 30 -34 19 0 12 34 -8 38 -8 1 -18 0 -22
-4z"/>
<path d="M6270 7130 c0 -15 5 -20 18 -18 9 2 17 10 17 18 0 8 -8 16 -17 18
-13 2 -18 -3 -18 -18z"/>
<path d="M6377 7143 c-13 -12 -7 -33 8 -33 8 0 15 9 15 20 0 20 -11 26 -23 13z"/>
<path d="M5667 7133 c-11 -10 -8 -20 8 -27 10 -4 15 1 15 14 0 20 -11 26 -23
13z"/>
<path d="M5854 7125 c-3 -8 -3 -19 1 -25 11 -17 35 -11 35 9 0 23 -29 36 -36
16z"/>
<path d="M5750 7115 c0 -21 28 -31 43 -16 9 9 8 14 -3 21 -22 14 -40 12 -40
-5z"/>
<path d="M5215 7110 c-3 -5 -1 -10 4 -10 6 0 11 5 11 10 0 6 -2 10 -4 10 -3 0
-8 -4 -11 -10z"/>
<path d="M5110 7100 c-13 -8 -13 -10 2 -10 9 0 20 5 23 10 8 13 -5 13 -25 0z"/>
<path d="M5907 7104 c-15 -15 -7 -45 11 -42 9 2 17 12 17 22 0 20 -16 31 -28
20z"/>
<path d="M6577 7087 c10 -12 19 -24 21 -27 2 -3 2 6 0 19 -2 14 -11 25 -21 27
-18 2 -18 2 0 -19z"/>
<path d="M5440 7085 c0 -8 7 -15 15 -15 8 0 15 7 15 15 0 8 -7 15 -15 15 -8 0
-15 -7 -15 -15z"/>
<path d="M5532 7083 c5 -25 28 -28 28 -4 0 12 -6 21 -16 21 -9 0 -14 -7 -12
-17z"/>
<path d="M5622 7084 c4 -21 22 -23 26 -1 2 10 -3 17 -13 17 -10 0 -15 -6 -13
-16z"/>
<path d="M6124 7089 c-3 -6 1 -18 10 -27 14 -14 18 -15 25 -3 5 8 7 20 4 28
-6 16 -29 17 -39 2z"/>
<path d="M6220 7080 c0 -13 7 -20 18 -20 24 0 32 8 25 26 -8 22 -43 17 -43 -6z"/>
<path d="M6317 7086 c-7 -16 1 -26 20 -26 7 0 13 9 13 20 0 23 -25 27 -33 6z"/>
<path d="M5710 7076 c0 -15 24 -28 34 -19 7 7 -13 33 -25 33 -5 0 -9 -6 -9
-14z"/>
<path d="M5804 7079 c-3 -6 -2 -15 2 -19 12 -12 38 5 30 19 -9 14 -23 14 -32
0z"/>
<path d="M6417 7083 c-11 -10 -8 -20 6 -26 8 -3 14 3 14 14 2 19 -8 25 -20 12z"/>
<path d="M5100 7073 c7 -3 7 -9 2 -16 -10 -12 24 -131 48 -169 5 -10 10 -22
10 -28 0 -5 14 -31 31 -58 17 -26 28 -39 25 -30 -2 9 2 22 10 28 16 14 19 36
5 45 -5 3 -16 -2 -25 -10 -9 -9 -17 -11 -21 -5 -8 13 4 32 16 25 5 -4 9 -1 9
4 0 13 -12 14 -25 4 -6 -5 -7 -4 -2 2 12 16 8 35 -7 29 -20 -8 -36 26 -36 75
0 28 -4 41 -14 41 -9 0 -13 11 -12 32 0 18 -4 32 -12 34 -7 1 -8 0 -2 -3z"/>
<path d="M6511 7064 c0 -11 3 -14 6 -6 3 7 2 16 -1 19 -3 4 -6 -2 -5 -13z"/>
<path d="M5160 7055 c0 -8 5 -15 10 -15 6 0 10 7 10 15 0 8 -4 15 -10 15 -5 0
-10 -7 -10 -15z"/>
<path d="M5395 7060 c-4 -7 -1 -19 7 -27 14 -13 16 -13 21 0 7 20 -18 43 -28
27z"/>
<path d="M5944 7058 c-4 -5 -1 -15 5 -21 8 -8 16 -6 31 8 19 20 19 20 -5 21
-14 1 -28 -3 -31 -8z"/>
<path d="M5485 7050 c-3 -6 1 -13 10 -16 19 -8 30 0 20 15 -8 14 -22 14 -30 1z"/>
<path d="M5576 7041 c-3 -5 0 -14 8 -20 10 -8 16 -8 25 2 6 8 8 17 4 20 -9 10
-31 9 -37 -2z"/>
<path d="M5670 7031 c0 -12 6 -21 16 -21 9 0 14 7 12 17 -5 25 -28 28 -28 4z"/>
<path d="M5761 7036 c-13 -15 -4 -26 21 -26 21 0 24 25 4 33 -8 3 -19 0 -25
-7z"/>
<path d="M5862 7028 c2 -13 8 -23 13 -23 6 0 11 10 13 23 2 15 -2 22 -13 22
-11 0 -15 -7 -13 -22z"/>
<path d="M6077 7036 c-7 -18 1 -26 25 -26 13 0 18 6 16 17 -4 22 -34 29 -41 9z"/>
<path d="M6170 7030 c0 -16 5 -21 23 -18 12 2 22 10 22 18 0 8 -10 16 -22 18
-18 3 -23 -2 -23 -18z"/>
<path d="M6268 7044 c-12 -11 4 -34 24 -34 13 0 18 6 16 17 -3 18 -29 29 -40
17z"/>
<path d="M6461 7036 c-14 -17 -7 -36 15 -36 15 0 16 6 5 33 -6 17 -8 17 -20 3z"/>
<path d="M6360 7025 c0 -8 9 -15 20 -15 11 0 20 7 20 15 0 8 -9 15 -20 15 -11
0 -20 -7 -20 -15z"/>
<path d="M5993 7015 c-3 -9 -3 -19 1 -22 8 -9 37 18 30 28 -8 14 -24 11 -31
-6z"/>
<path d="M6546 7021 c-3 -5 1 -21 8 -37 l15 -27 6 26 c9 36 -13 65 -29 38z
m21 -23 c-3 -8 -6 -5 -6 6 -1 11 2 17 5 13 3 -3 4 -12 1 -19z"/>
<path d="M5445 7010 c-7 -12 12 -40 27 -40 13 0 6 43 -9 47 -6 2 -14 -1 -18
-7z"/>
<path d="M5910 7000 c0 -11 7 -20 15 -20 8 0 15 9 15 20 0 11 -7 20 -15 20 -8
0 -15 -9 -15 -20z"/>
<path d="M5356 7001 c-3 -5 1 -11 9 -15 15 -6 29 7 18 18 -9 9 -21 8 -27 -3z"/>
<path d="M5636 7003 c-11 -11 -6 -23 9 -23 8 0 15 4 15 9 0 13 -16 22 -24 14z"/>
<path d="M6224 6995 c-9 -21 3 -45 21 -45 20 0 20 46 0 54 -9 3 -18 -1 -21 -9z"/>
<path d="M5720 6986 c0 -8 7 -16 15 -20 10 -4 15 1 15 14 0 11 -7 20 -15 20
-8 0 -15 -6 -15 -14z"/>
<path d="M5810 6988 c0 -8 9 -14 21 -15 12 -1 19 3 16 10 -5 17 -37 21 -37 5z"/>
<path d="M6041 6987 c-6 -8 -6 -18 -1 -27 7 -11 11 -11 24 -1 9 8 16 17 16 21
0 14 -28 19 -39 7z"/>
<path d="M6126 6984 c-9 -23 -8 -24 14 -24 13 0 20 7 20 20 0 24 -25 27 -34 4z"/>
<path d="M6317 6993 c-13 -13 -7 -31 13 -36 23 -6 33 5 24 27 -6 16 -25 21
-37 9z"/>
<path d="M6404 6979 c-7 -12 15 -31 31 -26 6 2 11 11 13 20 4 19 -32 24 -44 6z"/>
<path d="M6504 6976 c-4 -10 -2 -22 4 -28 8 -8 13 -7 18 6 4 10 2 22 -4 28 -8
8 -13 7 -18 -6z"/>
<path d="M5245 6970 c4 -6 11 -8 16 -5 14 9 11 15 -7 15 -8 0 -12 -5 -9 -10z"/>
<path d="M5957 6963 c-12 -11 -8 -23 8 -23 8 0 15 7 15 15 0 16 -12 20 -23 8z"/>
<path d="M5580 6945 c0 -8 9 -15 20 -15 13 0 18 5 14 15 -4 8 -12 15 -20 15
-8 0 -14 -7 -14 -15z"/>
<path d="M5670 6945 c0 -10 7 -15 18 -13 21 4 19 22 -2 26 -10 2 -16 -3 -16
-13z"/>
<path d="M5764 6949 c-3 -6 -2 -15 4 -21 13 -13 32 -2 32 18 0 16 -26 19 -36
3z"/>
<path d="M5860 6944 c0 -9 7 -14 17 -12 25 5 28 28 4 28 -12 0 -21 -6 -21 -16z"/>
<path d="M6177 6954 c-16 -16 -7 -44 14 -44 15 0 20 5 17 22 -3 22 -19 33 -31
22z"/>
<path d="M6077 6944 c-11 -11 3 -24 24 -24 12 0 19 5 17 13 -5 14 -31 21 -41
11z"/>
<path d="M6266 6942 c-3 -5 1 -18 9 -28 13 -16 16 -17 25 -4 5 8 8 20 7 25 -5
13 -34 18 -41 7z"/>
<path d="M6364 6935 c-3 -8 -3 -19 1 -25 11 -17 35 -11 35 9 0 23 -29 36 -36
16z"/>
<path d="M5207 6925 c-8 -18 11 -31 25 -17 11 11 3 32 -12 32 -4 0 -10 -7 -13
-15z"/>
<path d="M5285 6930 c-7 -12 2 -30 16 -30 12 0 12 27 0 35 -5 3 -12 1 -16 -5z"/>
<path d="M6000 6919 c0 -24 23 -21 28 4 2 10 -3 17 -12 17 -10 0 -16 -9 -16
-21z"/>
<path d="M6450 6926 c0 -24 12 -46 21 -40 15 9 10 54 -6 54 -8 0 -15 -6 -15
-14z"/>
<path d="M6538 6918 c-2 -15 -10 -23 -23 -23 -13 0 -21 -8 -23 -22 -2 -13 1
-23 7 -23 6 0 8 -7 4 -16 -5 -12 -9 -10 -23 10 l-17 26 -10 -23 c-7 -15 -8
-29 -1 -40 5 -10 6 -26 3 -37 -14 -43 12 -17 47 48 45 83 61 122 48 122 -5 0
-10 -10 -12 -22z"/>
<path d="M5914 6916 c-4 -9 -4 -20 0 -23 3 -4 12 -1 18 5 9 9 9 15 0 24 -9 9
-13 7 -18 -6z"/>
<path d="M5541 6907 c-9 -12 -8 -16 5 -21 22 -8 28 -1 17 19 -8 14 -11 14 -22
2z"/>
<path d="M5635 6910 c-7 -12 2 -30 16 -30 12 0 12 27 0 35 -5 3 -12 1 -16 -5z"/>
<path d="M5720 6896 c0 -8 4 -17 9 -20 11 -7 33 18 24 27 -12 12 -33 7 -33 -7z"/>
<path d="M5812 6898 c7 -19 38 -22 38 -4 0 10 -9 16 -21 16 -12 0 -19 -5 -17
-12z"/>
<path d="M6123 6894 c-8 -21 13 -42 28 -27 13 13 5 43 -11 43 -6 0 -13 -7 -17
-16z"/>
<path d="M6221 6892 c-8 -16 -7 -21 5 -26 27 -11 35 -7 32 16 -4 29 -24 34
-37 10z"/>
<path d="M6315 6891 c-8 -25 1 -41 21 -41 11 0 14 8 12 27 -4 33 -24 41 -33
14z"/>
<path d="M6044 6889 c-10 -17 13 -36 27 -22 12 12 4 33 -11 33 -5 0 -12 -5
-16 -11z"/>
<path d="M6407 6894 c-15 -15 -7 -45 11 -42 9 2 17 12 17 22 0 20 -16 31 -28
20z"/>
<path d="M5243 6874 c-9 -23 11 -38 26 -20 13 16 7 36 -10 36 -5 0 -12 -7 -16
-16z"/>
<path d="M5585 6870 c-7 -12 2 -30 16 -30 12 0 12 27 0 35 -5 3 -12 1 -16 -5z"/>
<path d="M5865 6869 c-4 -6 -3 -15 3 -21 6 -6 11 -4 15 6 7 18 -9 31 -18 15z"/>
<path d="M5960 6870 c0 -5 7 -10 15 -10 8 0 15 5 15 10 0 6 -7 10 -15 10 -8 0
-15 -4 -15 -10z"/>
<path d="M5490 6866 c0 -2 7 -9 15 -16 12 -10 15 -10 15 4 0 9 -7 16 -15 16
-8 0 -15 -2 -15 -4z"/>
<path d="M5670 6856 c0 -8 7 -16 15 -20 10 -4 15 1 15 14 0 11 -7 20 -15 20
-8 0 -15 -6 -15 -14z"/>
<path d="M5766 6861 c-7 -11 18 -33 27 -24 4 3 7 12 7 20 0 15 -26 18 -34 4z"/>
<path d="M6000 6840 c0 -11 6 -20 14 -20 24 0 28 18 6 30 -17 9 -20 8 -20 -10z"/>
<path d="M6266 6843 c-8 -21 8 -38 29 -29 13 4 14 10 5 26 -13 24 -26 26 -34
3z"/>
<path d="M6360 6841 c-7 -14 -6 -22 5 -31 18 -15 35 -5 35 20 0 25 -28 33 -40
11z"/>
<path d="M6085 6841 c-8 -15 3 -31 21 -31 9 0 14 7 12 17 -4 20 -24 28 -33 14z"/>
<path d="M5910 6826 c0 -8 4 -17 9 -20 10 -7 23 19 14 28 -11 11 -23 6 -23 -8z"/>
<path d="M5457 6816 c-3 -8 0 -17 8 -19 17 -7 25 1 18 19 -7 18 -19 18 -26 0z"/>
<path d="M5542 6823 c-10 -4 -10 -8 -1 -19 15 -18 29 -18 29 0 0 18 -11 25
-28 19z"/>
<path d="M5637 6823 c-4 -3 -7 -12 -7 -20 0 -15 26 -18 34 -4 7 11 -18 33 -27
24z"/>
<path d="M5722 6818 c-8 -8 -9 -15 -1 -25 17 -20 29 -15 29 12 0 27 -9 32 -28
13z"/>
<path d="M5820 6820 c-11 -7 -12 -12 -3 -21 13 -13 33 -4 33 17 0 16 -9 18
-30 4z"/>
<path d="M5970 6790 c0 -5 5 -10 10 -10 6 0 10 5 10 10 0 6 -4 10 -10 10 -5 0
-10 -4 -10 -10z"/>
<path d="M6225 6790 c-8 -14 3 -30 21 -30 8 0 14 9 14 20 0 21 -24 28 -35 10z"/>
<path d="M6317 6793 c-14 -13 -6 -33 13 -33 13 0 20 7 20 20 0 19 -20 27 -33
13z"/>
<path d="M6400 6786 c0 -8 5 -18 10 -21 6 -4 8 -11 4 -16 -3 -5 -2 -9 3 -8 20
3 25 -2 13 -16 -7 -9 -8 -15 -2 -15 14 0 23 28 11 36 -7 4 -7 10 -1 16 6 6 8
17 5 24 -7 19 -43 18 -43 0z"/>
<path d="M5425 6770 c-8 -13 4 -32 16 -25 12 8 12 35 0 35 -6 0 -13 -4 -16
-10z"/>
<path d="M5502 6763 c5 -25 28 -28 28 -4 0 12 -6 21 -16 21 -9 0 -14 -7 -12
-17z"/>
<path d="M5590 6759 c0 -24 23 -21 28 4 2 10 -3 17 -12 17 -10 0 -16 -9 -16
-21z"/>
<path d="M5672 6763 c5 -25 28 -28 28 -4 0 12 -6 21 -16 21 -9 0 -14 -7 -12
-17z"/>
<path d="M5770 6770 c-12 -7 -12 -12 -2 -22 10 -10 15 -10 22 2 12 18 13 30 3
30 -5 0 -15 -5 -23 -10z"/>
<path d="M5860 6760 c0 -13 5 -20 13 -17 6 2 12 10 12 17 0 7 -6 15 -12 18 -8
2 -13 -5 -13 -18z"/>
<path d="M6026 6765 c-3 -9 1 -18 10 -22 19 -7 39 11 30 26 -10 16 -33 13 -40
-4z"/>
<path d="M5940 6750 c0 -13 5 -20 13 -17 6 2 12 10 12 17 0 7 -6 15 -12 18 -8
2 -13 -5 -13 -18z"/>
<path d="M6186 6738 c-9 -34 -8 -36 12 -34 22 4 27 29 9 45 -12 9 -16 7 -21
-11z"/>
<path d="M6264 6739 c-3 -6 0 -17 8 -25 13 -13 16 -13 27 0 7 8 10 20 6 26 -8
13 -32 13 -41 -1z"/>
<path d="M6360 6735 c0 -8 7 -26 15 -38 14 -22 12 -25 -23 -62 -23 -24 -29
-34 -15 -27 25 14 85 84 77 91 -3 3 -9 -1 -15 -9 -6 -11 -8 -5 -7 20 2 26 -1
35 -14 38 -11 2 -18 -3 -18 -13z"/>
<path d="M5715 6731 c-7 -12 12 -24 25 -16 11 7 4 25 -10 25 -5 0 -11 -4 -15
-9z"/>
<path d="M5804 6729 c-3 -6 -2 -15 2 -19 12 -12 38 5 30 19 -9 14 -23 14 -32
0z"/>
<path d="M5370 6711 c0 -28 21 -37 36 -16 16 22 10 35 -17 35 -12 0 -19 -7
-19 -19z"/>
<path d="M5460 6723 c0 -5 5 -15 10 -23 7 -11 12 -12 21 -3 6 6 8 16 5 22 -8
12 -36 15 -36 4z"/>
<path d="M5546 6721 c-7 -11 18 -33 27 -24 4 3 7 12 7 20 0 15 -26 18 -34 4z"/>
<path d="M5630 6726 c0 -8 47 -56 54 -56 3 0 6 7 6 15 0 8 -7 15 -15 15 -8 0
-15 7 -15 15 0 8 -7 15 -15 15 -8 0 -15 -2 -15 -4z"/>
<path d="M6073 6714 c-7 -20 11 -38 31 -31 9 4 12 13 9 26 -6 25 -31 28 -40 5z"/>
<path d="M5890 6705 c0 -8 7 -15 15 -15 8 0 15 7 15 15 0 8 -7 15 -15 15 -8 0
-15 -7 -15 -15z"/>
<path d="M5980 6699 c0 -25 33 -22 38 4 2 12 -3 17 -17 17 -15 0 -21 -6 -21
-21z"/>
<path d="M5754 6689 c-9 -15 11 -33 30 -26 9 4 13 13 10 22 -7 17 -30 20 -40
4z"/>
<path d="M6231 6691 c-14 -9 -12 -44 3 -45 5 -1 14 7 20 16 13 21 -3 41 -23
29z"/>
<path d="M6317 6694 c-15 -15 -7 -45 11 -42 9 2 17 12 17 22 0 20 -16 31 -28
20z"/>
<path d="M5416 6674 c-9 -25 19 -53 36 -36 9 9 10 17 2 29 -15 24 -30 27 -38
7z"/>
<path d="M5510 6666 c0 -15 7 -26 20 -29 23 -6 26 10 6 36 -18 23 -26 21 -26
-7z"/>
<path d="M5860 6675 c0 -9 5 -15 11 -13 6 2 11 8 11 13 0 5 -5 11 -11 13 -6 2
-11 -4 -11 -13z"/>
<path d="M6026 6673 c-10 -10 -7 -41 4 -48 12 -7 40 12 40 26 0 12 -36 30 -44
22z"/>
<path d="M5611 6657 c-12 -15 -5 -27 16 -27 7 0 13 9 13 20 0 23 -13 26 -29 7z"/>
<path d="M5704 6655 c-3 -8 -3 -18 0 -24 9 -14 45 -1 40 14 -8 20 -34 27 -40
10z"/>
<path d="M5926 6653 c-4 -9 -1 -20 6 -24 16 -10 43 15 34 30 -11 16 -33 13
-40 -6z"/>
<path d="M6089 6653 c-13 -16 -12 -17 4 -4 16 13 21 21 13 21 -2 0 -10 -8 -17
-17z"/>
<path d="M6165 6660 c-3 -5 -1 -10 4 -10 6 0 11 5 11 10 0 6 -2 10 -4 10 -3 0
-8 -4 -11 -10z"/>
<path d="M5813 6644 c-7 -19 2 -28 22 -21 19 8 19 23 0 31 -9 3 -18 -1 -22
-10z"/>
<path d="M5470 6625 c-15 -19 3 -47 26 -38 18 7 18 27 0 42 -10 9 -16 8 -26
-4z"/>
<path d="M6173 6624 c-7 -18 11 -39 26 -30 17 11 13 46 -4 46 -9 0 -18 -7 -22
-16z"/>
<path d="M6263 6624 c-3 -8 -2 -19 3 -24 12 -11 48 16 39 29 -9 16 -35 13 -42
-5z"/>
<path d="M5556 6611 c-9 -15 23 -36 36 -23 5 5 7 15 4 21 -9 13 -33 14 -40 2z"/>
<path d="M5654 6609 c-10 -17 23 -46 37 -32 7 7 9 19 6 27 -7 18 -33 21 -43 5z"/>
<path d="M5756 6611 c-10 -16 5 -41 26 -41 14 0 19 6 16 22 -3 24 -32 36 -42
19z"/>
<path d="M5872 6607 c-14 -17 2 -42 22 -34 20 8 21 47 2 47 -7 0 -18 -6 -24
-13z"/>
<path d="M6128 6576 c-15 -11 -16 -16 -4 -31 15 -21 36 -12 36 15 0 25 -12 31
-32 16z"/>
<path d="M6223 6583 c-17 -6 -17 -28 0 -41 9 -8 21 -5 45 10 18 11 32 25 32
31 0 5 -9 2 -20 -8 -11 -10 -20 -13 -20 -8 0 13 -21 22 -37 16z"/>
<path d="M5604 6569 c-10 -17 23 -46 37 -32 7 7 9 19 6 27 -7 18 -33 21 -43 5z"/>
<path d="M5705 6560 c-8 -12 3 -50 14 -50 15 0 33 30 27 45 -6 17 -32 20 -41
5z"/>
<path d="M5814 6555 c-8 -19 3 -35 26 -35 22 0 33 23 17 39 -15 15 -37 14 -43
-4z"/>
<path d="M5924 6555 c-4 -8 -1 -21 5 -29 6 -7 8 -15 5 -19 -3 -3 3 -3 15 0 11
3 26 12 33 21 9 10 9 13 1 9 -7 -4 -14 1 -18 13 -7 24 -33 27 -41 5z"/>
<path d="M5434 7423 c3 -6 2 -14 -4 -18 -18 -11 -12 -47 8 -43 19 4 19 45 0
63 -8 7 -9 6 -4 -2z"/>
<path d="M3395 6530 c-3 -6 1 -7 9 -4 18 7 21 14 7 14 -6 0 -13 -4 -16 -10z"/>
<path d="M4940 6426 c0 -2 7 -6 15 -10 8 -3 15 -1 15 4 0 6 -7 10 -15 10 -8 0
-15 -2 -15 -4z"/>
<path d="M5007 6149 c7 -7 15 -10 18 -7 3 3 -2 9 -12 12 -14 6 -15 5 -6 -5z"/>
<path d="M5018 6083 c7 -3 16 -2 19 1 4 3 -2 6 -13 5 -11 0 -14 -3 -6 -6z"/>
<path d="M5081 6064 c0 -11 3 -14 6 -6 3 7 2 16 -1 19 -3 4 -6 -2 -5 -13z"/>
<path d="M4973 6039 c-30 -11 -29 -23 5 -40 45 -23 48 -23 32 -5 -8 10 -23 22
-35 27 -19 9 -19 9 2 5 13 -2 25 0 28 4 9 14 -8 18 -32 9z"/>
<path d="M5090 6020 c-8 -5 -10 -10 -5 -10 6 0 17 5 25 10 8 5 11 10 5 10 -5
0 -17 -5 -25 -10z"/>
<path d="M5102 5993 c-7 -10 -10 -12 -7 -5 4 7 0 12 -9 12 -24 0 -9 -24 27
-44 20 -11 25 -12 14 -2 -13 10 -17 21 -12 35 8 26 4 27 -13 4z"/>
<path d="M5105 5901 c-3 -5 -2 -12 3 -15 5 -3 9 1 9 9 0 17 -3 19 -12 6z"/>
<path d="M5385 5880 c-3 -5 -1 -10 4 -10 6 0 11 5 11 10 0 6 -2 10 -4 10 -3 0
-8 -4 -11 -10z"/>
<path d="M5140 5860 c0 -5 5 -10 11 -10 5 0 7 5 4 10 -3 6 -8 10 -11 10 -2 0
-4 -4 -4 -10z"/>
<path d="M5217 5819 c7 -7 15 -10 18 -7 3 3 -2 9 -12 12 -14 6 -15 5 -6 -5z"/>
<path d="M5863 6379 c-18 -5 -33 -12 -33 -14 0 -11 48 -4 66 10 22 16 13 17
-33 4z"/>
<path d="M5581 5668 c-16 -26 -11 -30 11 -7 10 10 14 20 10 23 -5 3 -14 -4
-21 -16z"/>
<path d="M5468 5543 c-22 -26 -33 -47 -20 -39 5 3 12 1 14 -6 3 -7 7 -5 11 6
4 10 3 15 -3 11 -21 -13 -9 13 13 28 12 9 17 16 11 16 -6 1 -18 -7 -26 -16z"/>
<path d="M5809 4503 c-13 -16 -12 -17 4 -4 9 7 17 15 17 17 0 8 -8 3 -21 -13z"/>
<path d="M5630 4475 c0 -8 2 -15 4 -15 2 0 6 7 10 15 3 8 1 15 -4 15 -6 0 -10
-7 -10 -15z"/>
<path d="M5727 4453 c-4 -6 0 -18 7 -28 8 -11 16 -14 19 -8 4 6 0 18 -7 28 -8
11 -16 14 -19 8z"/>
<path d="M5771 4174 c0 -11 3 -14 6 -6 3 7 2 16 -1 19 -3 4 -6 -2 -5 -13z"/>
<path d="M5790 4131 c0 -6 4 -13 10 -16 6 -3 7 1 4 9 -7 18 -14 21 -14 7z"/>
<path d="M5672 4105 c0 -16 2 -22 5 -12 2 9 2 23 0 30 -3 6 -5 -1 -5 -18z"/>
<path d="M5680 3899 c0 -5 5 -7 10 -4 6 3 10 8 10 11 0 2 -4 4 -10 4 -5 0 -10
-5 -10 -11z"/>
<path d="M5701 3864 c0 -11 3 -14 6 -6 3 7 2 16 -1 19 -3 4 -6 -2 -5 -13z"/>
<path d="M5731 3684 c0 -11 3 -14 6 -6 3 7 2 16 -1 19 -3 4 -6 -2 -5 -13z"/>
<path d="M5761 3514 c0 -11 3 -14 6 -6 3 7 2 16 -1 19 -3 4 -6 -2 -5 -13z"/>
<path d="M5782 3425 c0 -16 2 -22 5 -12 2 9 2 23 0 30 -3 6 -5 -1 -5 -18z"/>
<path d="M5881 3384 c0 -11 3 -14 6 -6 3 7 2 16 -1 19 -3 4 -6 -2 -5 -13z"/>
<path d="M5863 3305 c0 -8 4 -12 9 -9 5 3 6 10 3 15 -9 13 -12 11 -12 -6z"/>
<path d="M5795 3269 c-4 -6 -5 -12 -2 -15 2 -3 7 2 10 11 7 17 1 20 -8 4z"/>
<path d="M5933 3265 c0 -8 4 -12 9 -9 5 3 6 10 3 15 -9 13 -12 11 -12 -6z"/>
<path d="M5815 3259 c-4 -6 -5 -12 -2 -15 2 -3 7 2 10 11 7 17 1 20 -8 4z"/>
<path d="M5895 3210 c-3 -5 -1 -10 4 -10 6 0 11 5 11 10 0 6 -2 10 -4 10 -3 0
-8 -4 -11 -10z"/>
<path d="M5793 2870 c0 -36 2 -50 4 -32 2 17 2 47 0 65 -2 17 -4 3 -4 -33z"/>
<path d="M5791 2764 c0 -11 3 -14 6 -6 3 7 2 16 -1 19 -3 4 -6 -2 -5 -13z"/>
<path d="M5847 2251 c-4 -17 -3 -21 5 -13 5 5 8 16 6 23 -3 8 -7 3 -11 -10z"/>
<path d="M6305 6030 c-3 -5 1 -10 9 -10 9 0 16 5 16 10 0 6 -4 10 -9 10 -6 0
-13 -4 -16 -10z"/>
<path d="M6251 5966 c-20 -21 -21 -24 -5 -22 10 2 21 11 25 22 7 18 8 18 8 -1
1 -16 3 -17 10 -5 10 14 6 30 -8 30 -4 0 -18 -11 -30 -24z"/>
<path d="M6205 5970 c-3 -5 -1 -10 4 -10 6 0 11 5 11 10 0 6 -2 10 -4 10 -3 0
-8 -4 -11 -10z"/>
<path d="M6086 5931 c-3 -5 1 -11 9 -14 9 -4 12 -1 8 9 -6 16 -10 17 -17 5z"/>
<path d="M6210 5925 c7 -9 15 -13 17 -11 7 7 -7 26 -19 26 -6 0 -6 -6 2 -15z"/>
<path d="M6260 5921 c-12 -24 -13 -34 -1 -27 9 6 22 46 15 46 -2 0 -8 -9 -14
-19z"/>
<path d="M6145 5921 c-3 -5 -2 -12 3 -15 5 -3 9 1 9 9 0 17 -3 19 -12 6z"/>
<path d="M6015 5860 c3 -5 8 -10 11 -10 2 0 4 5 4 10 0 6 -5 10 -11 10 -5 0
-7 -4 -4 -10z"/>
<path d="M6205 5840 c-3 -5 -1 -10 4 -10 6 0 11 5 11 10 0 6 -2 10 -4 10 -3 0
-8 -4 -11 -10z"/>
<path d="M5977 5822 c-24 -27 -21 -36 4 -11 11 11 19 23 16 25 -2 2 -11 -4
-20 -14z"/>
<path d="M6080 5816 c0 -2 8 -10 18 -17 15 -13 16 -12 3 4 -13 16 -21 21 -21
13z"/>
<path d="M6013 5795 c0 -8 4 -12 9 -9 5 3 6 10 3 15 -9 13 -12 11 -12 -6z"/>
<path d="M6041 5786 c-9 -11 -9 -16 1 -22 7 -4 10 -4 6 1 -4 4 -3 14 3 22 6 7
9 13 6 13 -2 0 -10 -6 -16 -14z"/>
<path d="M6070 5796 c0 -2 8 -10 18 -17 15 -13 16 -12 3 4 -13 16 -21 21 -21
13z"/>
<path d="M6110 5755 c0 -8 2 -15 4 -15 2 0 6 7 10 15 3 8 1 15 -4 15 -6 0 -10
-7 -10 -15z"/>
<path d="M6204 5756 c-4 -9 -4 -20 0 -23 3 -4 12 -1 18 5 9 9 9 15 0 24 -9 9
-13 7 -18 -6z"/>
<path d="M5994 5752 c3 -5 0 -13 -6 -15 -9 -4 -10 -6 -1 -6 17 -1 25 16 12 25
-7 4 -9 3 -5 -4z"/>
<path d="M6147 5706 c-3 -8 0 -17 8 -19 15 -7 25 1 25 20 0 17 -26 17 -33 -1z"/>
<path d="M6240 5706 c0 -8 5 -18 10 -21 6 -3 10 3 10 14 0 12 -4 21 -10 21 -5
0 -10 -6 -10 -14z"/>
<path d="M6070 5701 c0 -5 5 -13 10 -16 6 -3 10 -2 10 4 0 5 -4 13 -10 16 -5
3 -10 2 -10 -4z"/>
<path d="M6096 5671 c-3 -4 0 -15 7 -24 15 -21 43 -6 34 17 -7 17 -32 22 -41
7z"/>
<path d="M6196 5664 c-8 -22 -8 -24 8 -24 21 0 28 16 12 29 -11 9 -15 8 -20
-5z"/>
<path d="M6147 5623 c-14 -13 -7 -33 11 -33 24 0 32 8 25 26 -5 15 -25 19 -36
7z"/>
<path d="M6240 5618 c0 -9 5 -20 11 -23 17 -11 20 0 4 21 -13 17 -14 17 -15 2z"/>
<path d="M6095 5580 c-3 -5 -3 -10 2 -11 4 0 0 -4 -10 -8 -17 -6 -17 -8 5 -18
32 -14 52 -2 43 26 -7 22 -29 28 -40 11z"/>
<path d="M6190 5566 c0 -18 16 -29 30 -21 13 8 1 35 -16 35 -8 0 -14 -6 -14
-14z"/>
<path d="M6239 5540 c-4 -21 -5 -50 0 -50 3 0 12 4 18 8 10 6 10 12 -2 28 -8
10 -15 17 -16 14z"/>
<path d="M6182 5468 c3 -7 15 -15 27 -16 16 -3 22 1 19 10 -3 7 -15 15 -27 16
-16 3 -22 -1 -19 -10z"/>
<path d="M6256 5463 c-6 -14 -5 -15 5 -6 7 7 10 15 7 18 -3 3 -9 -2 -12 -12z"/>
<path d="M6369 5878 c-5 -17 -4 -48 3 -48 4 0 8 11 8 25 0 20 -7 34 -11 23z"/>
<path d="M6387 5777 c-5 -15 6 -48 17 -49 9 0 26 22 26 34 0 4 -9 12 -19 17
-14 8 -20 7 -24 -2z"/>
<path d="M5029 5805 c15 -28 51 -69 55 -64 2 2 -12 22 -31 44 -20 22 -31 31
-24 20z"/>
<path d="M5799 5703 c-13 -15 -12 -15 9 -4 12 6 22 8 21 4 -1 -4 0 -19 1 -33
l2 -25 7 25 c7 24 -3 50 -19 50 -4 0 -14 -7 -21 -17z"/>
<path d="M5812 5665 c0 -16 2 -22 5 -12 2 9 2 23 0 30 -3 6 -5 -1 -5 -18z"/>
<path d="M5786 5568 c-11 -34 -17 -72 -11 -66 8 8 25 78 19 78 -3 0 -6 -6 -8
-12z"/>
<path d="M5802 5540 c0 -14 2 -19 5 -12 2 6 2 18 0 25 -3 6 -5 1 -5 -13z"/>
<path d="M6520 5655 c-13 -14 -19 -25 -13 -25 6 0 18 11 27 25 9 14 15 25 13
25 -2 0 -14 -11 -27 -25z"/>
<path d="M6464 5598 l-19 -23 25 20 c14 11 27 21 29 22 2 2 0 3 -6 3 -5 0 -18
-10 -29 -22z"/>
<path d="M6477 5560 c-4 -15 0 -20 14 -20 12 0 19 7 19 20 0 11 -6 20 -14 20
-7 0 -16 -9 -19 -20z"/>
<path d="M6440 5559 c0 -5 5 -7 10 -4 6 3 10 8 10 11 0 2 -4 4 -10 4 -5 0 -10
-5 -10 -11z"/>
<path d="M6517 5523 c-12 -11 -8 -23 7 -23 8 0 16 7 20 15 5 15 -14 21 -27 8z"/>
<path d="M6376 5485 c-2 -6 4 -17 14 -23 14 -9 21 -8 31 4 6 8 9 17 5 21 -11
12 -45 10 -50 -2z"/>
<path d="M6660 5450 c0 -5 5 -10 10 -10 6 0 10 5 10 10 0 6 -4 10 -10 10 -5 0
-10 -4 -10 -10z"/>
<path d="M6346 5205 c4 -9 11 -14 16 -13 15 5 11 23 -6 26 -11 2 -14 -2 -10
-13z"/>
<path d="M6445 5201 c-3 -5 2 -11 10 -15 8 -3 17 -1 20 3 3 5 -2 11 -10 15 -8
3 -17 1 -20 -3z"/>
<path d="M6307 5174 c-8 -8 1 -24 12 -24 4 0 8 7 8 15 0 16 -9 20 -20 9z"/>
<path d="M6400 5160 c0 -11 7 -20 15 -20 8 0 15 6 15 14 0 8 -7 16 -15 20 -10
4 -15 -1 -15 -14z"/>
<path d="M6147 5154 c-3 -5 1 -15 9 -22 16 -14 18 -5 5 17 -5 7 -11 9 -14 5z"/>
<path d="M6241 5141 c-8 -6 -9 -11 -3 -15 6 -3 14 -1 17 5 9 14 2 20 -14 10z"/>
<path d="M6566 5132 c-3 -6 -1 -14 5 -17 15 -10 25 3 12 16 -7 7 -13 7 -17 1z"/>
<path d="M6362 5118 c2 -6 10 -14 16 -16 7 -2 10 2 6 12 -7 18 -28 22 -22 4z"/>
<path d="M6452 5118 c2 -6 11 -12 20 -14 11 -1 15 3 11 12 -6 17 -36 19 -31 2z"/>
<path d="M6183 5104 c-7 -20 8 -36 25 -25 14 8 6 41 -9 41 -5 0 -12 -7 -16
-16z"/>
<path d="M6274 5107 c-8 -21 2 -35 16 -21 5 5 6 15 0 24 -8 12 -10 12 -16 -3z"/>
<path d="M6109 5103 c-10 -2 -20 -14 -23 -26 -5 -18 -8 -20 -16 -7 -5 8 -10
11 -10 5 0 -5 -5 -3 -11 5 -9 13 -10 12 -5 -2 3 -11 0 -18 -7 -18 -8 0 -6 -4
3 -10 12 -8 10 -10 -8 -10 -15 0 -21 4 -16 12 4 7 3 8 -5 4 -9 -6 -9 -11 0
-22 9 -11 16 -11 43 3 31 17 37 19 57 22 5 0 7 6 4 11 -3 6 -2 10 3 10 5 0 9
7 9 15 0 8 -1 14 -1 14 -1 -1 -8 -3 -17 -6z"/>
<path d="M6510 5080 c0 -5 7 -10 16 -10 8 0 12 5 9 10 -3 6 -10 10 -16 10 -5
0 -9 -4 -9 -10z"/>
<path d="M6412 5071 c4 -13 18 -16 19 -4 0 4 -5 9 -11 12 -7 2 -11 -2 -8 -8z"/>
<path d="M6227 5056 c-7 -16 1 -26 20 -26 7 0 13 9 13 20 0 23 -25 27 -33 6z"/>
<path d="M6317 5050 c8 -31 23 -34 23 -6 0 16 -6 26 -14 26 -9 0 -12 -7 -9
-20z"/>
<path d="M6556 5041 c-3 -5 1 -12 10 -15 20 -8 29 -1 19 13 -8 13 -22 14 -29
2z"/>
<path d="M6377 5033 c-3 -5 -2 -15 2 -22 7 -10 10 -10 16 -1 4 6 3 16 -3 22
-5 5 -12 6 -15 1z"/>
<path d="M6457 5034 c-9 -10 2 -24 19 -24 8 0 14 7 14 15 0 15 -21 21 -33 9z"/>
<path d="M6185 5022 c-18 -12 -11 -37 10 -37 13 0 20 7 20 19 0 21 -14 30 -30
18z"/>
<path d="M6275 5020 c-8 -13 3 -30 21 -30 18 0 18 14 0 29 -10 8 -16 9 -21 1z"/>
<path d="M6507 4993 c-13 -12 -7 -23 13 -23 11 0 20 7 20 15 0 15 -21 21 -33
8z"/>
<path d="M6607 4993 c-4 -3 -7 -11 -7 -17 0 -6 5 -5 12 2 6 6 9 14 7 17 -3 3
-9 2 -12 -2z"/>
<path d="M6420 4980 c0 -5 7 -10 16 -10 8 0 12 5 9 10 -3 6 -10 10 -16 10 -5
0 -9 -4 -9 -10z"/>
<path d="M6230 4960 c0 -11 5 -20 11 -20 5 0 7 -4 4 -10 -3 -5 0 -7 8 -4 18 6
11 40 -9 48 -9 3 -14 -2 -14 -14z"/>
<path d="M6556 4952 c-8 -13 11 -35 23 -28 16 10 14 36 -3 36 -8 0 -17 -4 -20
-8z"/>
<path d="M6460 4940 c0 -5 7 -10 15 -10 8 0 15 5 15 10 0 6 -7 10 -15 10 -8 0
-15 -4 -15 -10z"/>
<path d="M6392 4908 c3 -7 13 -15 22 -16 12 -3 17 1 14 10 -3 7 -13 15 -22 16
-12 3 -17 -1 -14 -10z"/>
<path d="M6500 4901 c0 -11 26 -22 34 -14 3 3 3 10 0 14 -7 12 -34 11 -34 0z"/>
<path d="M6356 4819 c-18 -20 -25 -34 -18 -41 6 -6 12 -6 16 1 4 6 4 11 0 11
-4 0 3 11 16 25 13 14 21 27 18 30 -2 3 -17 -9 -32 -26z"/>
<path d="M6272 4809 c-13 -16 -17 -27 -10 -24 13 5 42 45 36 50 -2 1 -13 -11
-26 -26z"/>
<path d="M5001 8184 c0 -11 3 -14 6 -6 3 7 2 16 -1 19 -3 4 -6 -2 -5 -13z"/>
<path d="M4874 8179 c-10 -17 13 -36 27 -22 12 12 4 33 -11 33 -5 0 -12 -5
-16 -11z"/>
<path d="M4927 8144 c-14 -14 -7 -35 11 -32 9 2 17 10 17 17 0 16 -18 25 -28
15z"/>
<path d="M4992 8133 c5 -25 28 -28 28 -4 0 12 -6 21 -16 21 -9 0 -14 -7 -12
-17z"/>
<path d="M4742 8117 c3 -24 21 -27 26 -4 2 8 -4 17 -13 21 -13 4 -16 1 -13
-17z"/>
<path d="M4825 8130 c-3 -6 1 -13 10 -16 19 -8 30 0 20 15 -8 14 -22 14 -30 1z"/>
<path d="M4690 8094 c-9 -23 4 -73 16 -62 10 10 11 67 1 61 -6 -4 -8 0 -4 10
3 10 4 17 1 17 -2 0 -9 -12 -14 -26z"/>
<path d="M6763 8095 c-8 -9 -9 -15 0 -24 15 -15 24 -14 30 3 8 21 -15 37 -30
21z"/>
<path d="M4784 8085 c-9 -23 10 -40 25 -22 9 11 8 17 -4 27 -12 10 -16 9 -21
-5z"/>
<path d="M4876 8091 c-8 -13 4 -42 15 -35 12 7 12 44 0 44 -6 0 -12 -4 -15 -9z"/>
<path d="M6557 8093 c-4 -3 -7 -11 -7 -17 0 -6 5 -5 12 2 6 6 9 14 7 17 -3 3
-9 2 -12 -2z"/>
<path d="M4962 8074 c4 -21 22 -23 26 -1 2 10 -3 17 -13 17 -10 0 -15 -6 -13
-16z"/>
<path d="M6505 8050 c-3 -6 -1 -10 4 -10 6 0 11 -5 11 -11 0 -6 -7 -9 -15 -5
-8 3 -14 2 -14 -2 1 -4 1 -13 0 -21 -1 -12 -4 -11 -13 2 -12 16 -15 16 -45 -5
-29 -20 -49 -49 -23 -33 6 3 10 1 10 -5 0 -6 4 -9 9 -6 5 4 11 1 13 -4 2 -6
24 11 50 37 39 40 44 50 33 60 -9 8 -16 9 -20 3z m-50 -66 c12 -5 14 -9 4 -14
-15 -10 -41 -1 -33 11 6 11 8 11 29 3z"/>
<path d="M4742 8037 c-13 -15 1 -42 17 -33 13 9 15 33 2 40 -5 3 -13 0 -19 -7z"/>
<path d="M6821 8036 c-8 -9 -8 -16 -2 -20 6 -4 7 -16 2 -29 -4 -12 -6 -27 -4
-34 2 -6 -1 -14 -7 -18 -6 -4 -11 -1 -9 6 3 25 -1 39 -11 39 -5 0 -10 -12 -11
-27 0 -16 -4 -37 -9 -48 -8 -20 -11 -18 -14 8 -2 17 -31 15 -31 -3 0 -8 6 -15
13 -15 6 0 12 -4 11 -10 -1 -5 -5 -9 -11 -7 -5 1 -7 -2 -3 -8 10 -15 -12 -12
-29 5 -22 23 -29 18 -22 -15 6 -35 -3 -38 -29 -10 -16 18 -17 23 -5 45 10 20
11 27 0 40 -21 26 -28 8 -23 -62 3 -38 7 -69 8 -71 1 -1 19 5 41 14 43 18 114
81 114 102 0 7 4 11 9 8 12 -8 43 30 57 70 10 30 10 36 -6 44 -13 7 -21 5 -29
-4z"/>
<path d="M4822 8028 c6 -18 28 -21 28 -4 0 9 -7 16 -16 16 -9 0 -14 -5 -12
-12z"/>
<path d="M4910 8026 c0 -15 24 -28 34 -19 13 14 5 33 -14 33 -11 0 -20 -6 -20
-14z"/>
<path d="M5010 8018 c0 -7 5 -20 10 -28 8 -13 12 -13 27 3 16 15 16 19 3 27
-21 14 -40 12 -40 -2z"/>
<path d="M4700 7985 c0 -63 46 -127 125 -174 38 -22 54 -18 55 15 0 15 -28 26
-35 14 -11 -18 -27 -10 -22 10 7 28 -16 44 -42 30 -29 -15 -28 6 2 32 12 11
18 17 12 15 -22 -10 -55 12 -55 37 0 15 -8 30 -20 36 -18 9 -20 8 -20 -15z"/>
<path d="M6342 8000 c-44 -10 -49 -17 -29 -37 16 -16 19 -15 46 15 17 18 27
32 23 31 -4 -1 -22 -5 -40 -9z"/>
<path d="M6635 8000 c-3 -5 -1 -10 4 -10 6 0 11 5 11 10 0 6 -2 10 -4 10 -3 0
-8 -4 -11 -10z"/>
<path d="M4784 7979 c-10 -17 13 -36 27 -22 12 12 4 33 -11 33 -5 0 -12 -5
-16 -11z"/>
<path d="M4873 7982 c-18 -11 1 -36 22 -28 9 3 15 11 13 18 -5 15 -20 20 -35
10z"/>
<path d="M4956 7975 c-3 -9 1 -18 10 -22 19 -7 39 11 30 26 -10 16 -33 13 -40
-4z"/>
<path d="M6676 7981 c-8 -12 3 -41 15 -41 5 0 9 11 9 25 0 25 -14 34 -24 16z"/>
<path d="M5056 7961 c-8 -13 20 -45 32 -37 20 12 14 46 -7 46 -11 0 -22 -4
-25 -9z"/>
<path d="M4831 7931 c-18 -12 -5 -31 20 -31 14 0 19 6 17 17 -4 20 -18 26 -37
14z"/>
<path d="M4915 7930 c-4 -7 -3 -16 3 -22 14 -14 45 -2 40 15 -6 16 -34 21 -43
7z"/>
<path d="M5003 7924 c-6 -16 15 -37 29 -28 4 3 8 14 8 25 0 23 -28 26 -37 3z"/>
<path d="M5094 7903 c-4 -14 -12 -19 -23 -16 -26 7 -33 -22 -12 -46 18 -21 19
-21 34 26 9 26 14 50 11 52 -3 3 -7 -4 -10 -16z"/>
<path d="M4886 7883 c-12 -12 -6 -33 9 -33 8 0 15 6 15 14 0 17 -14 28 -24 19z"/>
<path d="M4963 7874 c-8 -20 8 -36 26 -25 15 10 8 41 -9 41 -6 0 -13 -7 -17
-16z"/>
<path d="M4916 7825 c-10 -8 -24 -16 -30 -19 -7 -3 -6 -8 4 -15 20 -14 33 -14
25 2 -4 6 1 3 9 -7 19 -23 26 -18 29 19 2 33 -11 40 -37 20z"/>
<path d="M5004 7829 c-8 -14 11 -33 25 -25 16 10 13 36 -3 36 -8 0 -18 -5 -22
-11z"/>
<path d="M4675 7690 c3 -5 8 -10 11 -10 2 0 4 5 4 10 0 6 -5 10 -11 10 -5 0
-7 -4 -4 -10z"/>
<path d="M4720 7690 c-12 -7 -12 -12 -2 -22 9 -9 15 -9 24 0 16 16 -2 34 -22
22z"/>
<path d="M4760 7640 c-8 -5 -12 -12 -9 -15 4 -3 12 1 19 10 14 17 11 19 -10 5z"/>
<path d="M4660 7630 c0 -5 5 -10 11 -10 5 0 7 5 4 10 -3 6 -8 10 -11 10 -2 0
-4 -4 -4 -10z"/>
<path d="M4910 7600 c0 -11 7 -20 15 -20 8 0 15 9 15 20 0 11 -7 20 -15 20 -8
0 -15 -9 -15 -20z"/>
<path d="M4700 7566 c0 -2 8 -10 18 -17 15 -13 16 -12 3 4 -13 16 -21 21 -21
13z"/>
<path d="M4773 7535 c0 -8 8 -15 18 -15 12 0 16 5 13 15 -4 8 -12 15 -18 15
-7 0 -13 -7 -13 -15z"/>
<path d="M6344 6548 c-23 -27 -24 -29 -3 -10 14 12 28 20 31 17 2 -3 5 2 5 10
0 19 2 20 -33 -17z"/>
</g>
</svg>
